<svg xmlns="http://www.w3.org/2000/svg" xmlns:xlink="http://www.w3.org/1999/xlink" width="50" zoomAndPan="magnify" viewBox="0 0 37.5 37.499999" height="50" preserveAspectRatio="xMidYMid meet" version="1.2"><g id="89010f0521"><path style=" stroke:none;fill-rule:nonzero;fill:#4685f7;fill-opacity:1;" d="M 18.503906 16.984375 C 17.574219 16.984375 16.683594 17.421875 16.121094 18.15625 C 15.929688 18.410156 15.976562 18.773438 16.230469 18.964844 C 16.484375 19.15625 16.847656 19.109375 17.039062 18.855469 C 17.386719 18.398438 17.917969 18.140625 18.503906 18.140625 C 19.085938 18.140625 19.621094 18.398438 19.964844 18.855469 C 20.082031 19.007812 20.253906 19.082031 20.429688 19.082031 C 20.550781 19.082031 20.671875 19.042969 20.777344 18.964844 C 21.03125 18.773438 21.078125 18.410156 20.886719 18.15625 C 20.324219 17.421875 19.433594 16.984375 18.503906 16.984375 Z M 18.503906 16.984375 "/><path style=" stroke:none;fill-rule:nonzero;fill:#4685f7;fill-opacity:1;" d="M 18.503906 14.558594 C 16.804688 14.558594 15.234375 15.328125 14.195312 16.664062 C 14 16.917969 14.046875 17.277344 14.300781 17.472656 C 14.554688 17.671875 14.914062 17.625 15.109375 17.371094 C 15.925781 16.316406 17.160156 15.710938 18.503906 15.710938 C 19.84375 15.710938 21.078125 16.3125 21.898438 17.371094 C 22.011719 17.515625 22.179688 17.59375 22.355469 17.59375 C 22.476562 17.59375 22.601562 17.554688 22.707031 17.472656 C 22.960938 17.277344 23.007812 16.914062 22.8125 16.664062 C 21.769531 15.328125 20.203125 14.558594 18.503906 14.558594 Z M 18.503906 14.558594 "/><path style=" stroke:none;fill-rule:nonzero;fill:#4685f7;fill-opacity:1;" d="M 18.503906 12.144531 C 16.046875 12.144531 13.773438 13.253906 12.265625 15.191406 C 12.066406 15.445312 12.113281 15.804688 12.363281 16 C 12.617188 16.195312 12.976562 16.148438 13.171875 15.902344 C 14.460938 14.246094 16.398438 13.300781 18.496094 13.300781 C 20.597656 13.300781 22.535156 14.246094 23.824219 15.902344 C 23.9375 16.046875 24.105469 16.125 24.28125 16.125 C 24.402344 16.125 24.527344 16.085938 24.632812 16.003906 C 24.886719 15.808594 24.925781 15.445312 24.730469 15.195312 C 23.222656 13.257812 20.949219 12.148438 18.492188 12.148438 Z M 18.503906 12.144531 "/><path style=" stroke:none;fill-rule:nonzero;fill:#4685f7;fill-opacity:1;" d="M 33.539062 28.910156 L 28.910156 28.910156 C 28.59375 28.910156 28.332031 29.171875 28.332031 29.488281 L 28.332031 31.222656 L 21.394531 31.222656 L 21.394531 29.488281 C 21.394531 29.171875 21.132812 28.910156 20.816406 28.910156 L 19.082031 28.910156 L 19.082031 24.285156 L 27.175781 24.285156 C 31.003906 24.285156 34.117188 21.175781 34.117188 17.347656 C 34.117188 14.058594 31.855469 11.277344 28.679688 10.582031 C 27.675781 5.765625 23.457031 2.3125 18.503906 2.3125 C 13.546875 2.3125 9.332031 5.765625 8.328125 10.582031 C 5.152344 11.277344 2.890625 14.0625 2.890625 17.347656 C 2.890625 21.175781 6.003906 24.285156 9.828125 24.285156 L 17.925781 24.285156 L 17.925781 28.910156 L 16.191406 28.910156 C 15.871094 28.910156 15.613281 29.171875 15.613281 29.488281 L 15.613281 31.222656 L 8.671875 31.222656 L 8.671875 29.488281 C 8.671875 29.171875 8.414062 28.910156 8.09375 28.910156 L 3.46875 28.910156 C 3.152344 28.910156 2.890625 29.171875 2.890625 29.488281 L 2.890625 34.117188 C 2.890625 34.433594 3.152344 34.695312 3.46875 34.695312 L 8.09375 34.695312 C 8.414062 34.695312 8.671875 34.433594 8.671875 34.117188 L 8.671875 32.378906 L 15.613281 32.378906 L 15.613281 34.117188 C 15.613281 34.433594 15.871094 34.695312 16.191406 34.695312 L 20.816406 34.695312 C 21.132812 34.695312 21.394531 34.433594 21.394531 34.117188 L 21.394531 32.378906 L 28.332031 32.378906 L 28.332031 34.117188 C 28.332031 34.433594 28.59375 34.695312 28.910156 34.695312 L 33.539062 34.695312 C 33.855469 34.695312 34.117188 34.433594 34.117188 34.117188 L 34.117188 29.488281 C 34.117188 29.171875 33.855469 28.910156 33.539062 28.910156 Z M 7.515625 33.539062 L 4.046875 33.539062 L 4.046875 30.066406 L 7.515625 30.066406 Z M 9.828125 23.128906 C 6.644531 23.128906 4.046875 20.53125 4.046875 17.347656 C 4.046875 14.492188 6.09375 12.097656 8.917969 11.644531 C 9.160156 11.605469 9.355469 11.414062 9.394531 11.171875 C 10.152344 6.707031 13.980469 3.46875 18.507812 3.46875 C 23.035156 3.46875 26.863281 6.707031 27.621094 11.171875 C 27.664062 11.414062 27.851562 11.605469 28.101562 11.644531 C 30.921875 12.097656 32.96875 14.496094 32.96875 17.347656 C 32.96875 20.53125 30.375 23.128906 27.1875 23.128906 Z M 20.238281 33.539062 L 16.769531 33.539062 L 16.769531 30.066406 L 20.238281 30.066406 Z M 32.957031 33.539062 L 29.488281 33.539062 L 29.488281 30.066406 L 32.957031 30.066406 Z M 32.957031 33.539062 "/></g></svg>