<svg xmlns="http://www.w3.org/2000/svg" xmlns:xlink="http://www.w3.org/1999/xlink" width="50" zoomAndPan="magnify" viewBox="0 0 37.5 37.499999" height="50" preserveAspectRatio="xMidYMid meet" version="1.2"><g id="57288d4db5"><path style=" stroke:none;fill-rule:nonzero;fill:#4685f7;fill-opacity:1;" d="M 18.527344 36.527344 C 18.113281 36.5625 17.648438 36.378906 17.257812 36.257812 C 8.699219 33.597656 3.101562 26.230469 2.539062 17.402344 L 2.496094 16.941406 C 2.445312 16.214844 2.476562 15.46875 2.476562 14.742188 L 2.476562 5.730469 C 2.476562 5.027344 2.445312 4.046875 3.457031 4.03125 C 3.707031 4.027344 3.957031 4.148438 4.1875 4.234375 L 4.699219 4.398438 C 5.640625 4.667969 7.621094 4.902344 8.546875 4.695312 C 8.714844 4.65625 8.898438 4.648438 9.070312 4.628906 L 10.140625 4.453125 C 12.558594 3.976562 14.882812 2.96875 16.878906 1.519531 L 17.464844 1.0625 C 17.796875 0.789062 18.054688 0.578125 18.496094 0.53125 C 19.035156 0.5 19.449219 0.984375 19.835938 1.292969 L 20.78125 1.988281 C 22.941406 3.449219 26.191406 4.558594 28.742188 4.722656 L 29.679688 4.734375 C 30.601562 4.734375 31.515625 4.664062 32.398438 4.390625 L 32.921875 4.207031 C 33.191406 4.105469 33.503906 3.949219 33.796875 4.054688 C 34.617188 4.347656 34.527344 5.148438 34.527344 5.847656 L 34.511719 16.90625 L 34.429688 17.84375 C 34.320312 19.058594 34.144531 20.289062 33.84375 21.472656 C 32.390625 27.222656 28.519531 32.078125 23.273438 34.832031 C 22.148438 35.425781 19.824219 36.441406 18.527344 36.527344 Z M 18.46875 1.691406 L 17.621094 2.382812 C 14.265625 4.949219 8.0625 6.867188 3.863281 5.304688 C 3.773438 5.269531 3.667969 5.257812 3.589844 5.203125 L 3.585938 15.144531 C 3.585938 17.628906 3.855469 20.128906 4.621094 22.503906 L 5.144531 23.890625 C 7.226562 28.925781 11.460938 33.046875 16.605469 34.875 C 17.222656 35.09375 17.863281 35.3125 18.507812 35.429688 C 18.886719 35.351562 19.257812 35.242188 19.628906 35.128906 C 26.015625 33.175781 31.066406 27.746094 32.734375 21.292969 C 33.046875 20.070312 33.238281 18.796875 33.335938 17.539062 L 33.398438 16.84375 L 33.386719 5.226562 C 33.328125 5.273438 33.222656 5.285156 33.148438 5.308594 L 32.703125 5.457031 C 28.859375 6.621094 23.390625 5.105469 20.078125 2.871094 C 19.855469 2.71875 18.597656 1.660156 18.46875 1.691406 Z M 18.46875 1.691406 "/><path style=" stroke:none;fill-rule:nonzero;fill:#4685f7;fill-opacity:1;" d="M 18.628906 33.882812 C 16.40625 33.90625 12.855469 31.605469 11.246094 30.214844 C 7.730469 27.175781 5.625 22.835938 4.988281 18.253906 C 4.902344 17.636719 4.824219 17.015625 4.792969 16.390625 L 4.785156 8.667969 C 4.785156 8.527344 4.773438 8.367188 4.8125 8.230469 L 4.824219 8.203125 C 4.9375 7.847656 5.277344 7.769531 5.617188 7.765625 L 6.886719 7.753906 C 9.925781 7.582031 12.898438 6.695312 15.628906 5.378906 L 17.632812 4.332031 C 17.890625 4.199219 18.132812 4.0625 18.421875 4.015625 C 18.992188 3.976562 20.140625 4.742188 20.644531 5.003906 C 23.558594 6.519531 26.570312 7.464844 29.863281 7.75 C 30.300781 7.785156 30.753906 7.765625 31.191406 7.765625 C 32.140625 7.765625 32.21875 7.894531 32.21875 8.90625 L 32.214844 15.554688 C 32.214844 16.351562 32.171875 16.976562 32.089844 17.761719 L 31.851562 19.386719 C 31.179688 23.011719 29.5 26.40625 26.949219 29.070312 C 25.035156 31.070312 21.507812 33.554688 18.628906 33.882812 Z M 18.472656 5.160156 C 18.054688 5.332031 17.660156 5.59375 17.261719 5.8125 L 15.667969 6.617188 C 12.589844 8.058594 9.300781 8.828125 5.910156 8.898438 C 5.890625 9 5.902344 9.121094 5.902344 9.222656 L 5.910156 16.523438 C 6.28125 23.054688 10.066406 29.480469 16.222656 32.074219 C 16.824219 32.328125 17.886719 32.773438 18.550781 32.761719 C 21.152344 32.425781 24.167969 30.304688 26.019531 28.402344 C 29.382812 24.953125 31.105469 20.273438 31.109375 15.472656 L 31.109375 8.875 C 30.667969 8.859375 30.226562 8.882812 29.789062 8.851562 C 29.136719 8.804688 28.472656 8.707031 27.828125 8.605469 L 26.289062 8.332031 C 24.457031 7.921875 22.625 7.238281 20.941406 6.421875 L 19.054688 5.40625 C 18.921875 5.335938 18.617188 5.128906 18.472656 5.160156 Z M 18.472656 5.160156 "/><path style=" stroke:none;fill-rule:nonzero;fill:#4685f7;fill-opacity:1;" d="M 18.835938 26.519531 L 13.277344 26.523438 C 13.066406 26.523438 12.835938 26.539062 12.625 26.503906 C 10.699219 26.175781 10.265625 23.722656 10.050781 22.082031 L 9.921875 20.859375 C 9.871094 20.417969 9.882812 19.96875 9.882812 19.523438 L 9.898438 17.953125 L 10 17.019531 C 10.058594 16.542969 10.132812 16.066406 10.234375 15.597656 C 10.554688 14.121094 11.054688 13.664062 12.496094 13.410156 L 14.324219 13.050781 C 14.527344 13.007812 14.496094 13.046875 14.496094 12.824219 L 14.496094 11.480469 C 14.5 11.195312 14.488281 10.902344 14.515625 10.617188 C 14.707031 8.625 16.160156 7.039062 18.1875 6.820312 L 18.394531 6.808594 C 19.488281 6.789062 20.5 7.230469 21.28125 7.996094 C 23.132812 9.808594 22.332031 12.746094 22.527344 13.015625 C 22.566406 13.074219 24.546875 13.402344 24.796875 13.453125 C 26.238281 13.757812 26.539062 14.394531 26.820312 15.832031 C 27.351562 18.5625 27.273438 21.390625 26.539062 24.074219 C 26.242188 25.152344 25.851562 26.125 24.652344 26.445312 C 24.308594 26.535156 23.933594 26.515625 23.582031 26.515625 Z M 18.472656 7.941406 C 17.003906 8.035156 15.757812 9.144531 15.632812 10.632812 C 15.609375 10.914062 15.621094 11.203125 15.621094 11.488281 L 15.617188 12.84375 L 18.65625 12.699219 L 20.882812 12.808594 C 21.046875 12.824219 21.277344 12.824219 21.425781 12.886719 L 21.414062 11.503906 C 21.410156 11.136719 21.414062 10.765625 21.351562 10.402344 C 21.132812 9.085938 19.847656 7.914062 18.492188 7.9375 Z M 18.085938 13.792969 L 16.203125 13.917969 C 15.25 14.023438 14.316406 14.207031 13.378906 14.378906 C 11.621094 14.703125 11.523438 14.484375 11.210938 16.453125 C 11.121094 17.023438 11.039062 17.597656 11.003906 18.175781 L 10.988281 19.425781 C 10.996094 20.632812 11.15625 25.28125 12.835938 25.394531 C 13.09375 25.414062 13.359375 25.402344 13.617188 25.402344 L 18.964844 25.40625 L 23.621094 25.40625 C 24.816406 25.402344 25.046875 25.144531 25.417969 23.929688 C 25.773438 22.78125 25.964844 21.535156 26.019531 20.335938 L 26.03125 18.484375 C 26.023438 17.769531 25.789062 15.285156 25.28125 14.8125 C 24.804688 14.371094 20.378906 13.863281 19.6875 13.816406 C 19.15625 13.777344 18.617188 13.789062 18.085938 13.792969 Z M 18.085938 13.792969 "/><path style=" stroke:none;fill-rule:nonzero;fill:#4685f7;fill-opacity:1;" d="M 18.664062 21.890625 C 17.984375 22.105469 17.945312 21.4375 17.941406 20.984375 L 17.941406 20.386719 C 17.910156 20.359375 17.882812 20.335938 17.84375 20.324219 C 16.433594 19.792969 16.675781 17.601562 18.378906 17.371094 C 19.523438 17.199219 20.445312 18.4375 19.96875 19.515625 C 19.835938 19.8125 19.523438 20.191406 19.214844 20.304688 L 19.164062 20.324219 C 19.03125 20.394531 19.058594 20.40625 19.0625 20.546875 L 19.0625 21.121094 C 19.0625 21.476562 19.015625 21.71875 18.664062 21.890625 Z M 18.402344 18.488281 C 17.785156 18.738281 18.078125 19.386719 18.625 19.347656 C 19.226562 19.140625 19 18.457031 18.402344 18.488281 Z M 18.402344 18.488281 "/></g></svg>