<svg xmlns="http://www.w3.org/2000/svg" xmlns:xlink="http://www.w3.org/1999/xlink" width="50" zoomAndPan="magnify" viewBox="0 0 37.5 37.499999" height="50" preserveAspectRatio="xMidYMid meet" version="1.2"><g id="fdd6555a6c"><path style=" stroke:none;fill-rule:nonzero;fill:#4685f7;fill-opacity:1;" d="M 35.191406 22.609375 C 33.199219 22.609375 31.257812 21.285156 30.109375 20.324219 L 30.109375 15.613281 C 30.101562 15.402344 30.011719 15.238281 29.835938 15.121094 L 27.214844 13.488281 L 27.214844 9.828125 C 27.207031 9.671875 27.152344 9.539062 27.046875 9.421875 L 18.953125 1.324219 C 18.835938 1.21875 18.699219 1.164062 18.542969 1.15625 L 5.820312 1.15625 C 5.59375 1.15625 5.371094 1.199219 5.160156 1.289062 C 4.945312 1.378906 4.757812 1.503906 4.597656 1.664062 C 4.433594 1.828125 4.308594 2.015625 4.21875 2.226562 C 4.132812 2.441406 4.085938 2.660156 4.085938 2.890625 L 4.085938 13.488281 L 1.46875 15.121094 C 1.402344 15.171875 1.34375 15.230469 1.296875 15.292969 C 1.234375 15.390625 1.199219 15.496094 1.195312 15.613281 L 1.195312 34.117188 C 1.195312 34.34375 1.242188 34.566406 1.328125 34.777344 C 1.417969 34.992188 1.542969 35.179688 1.703125 35.339844 C 1.867188 35.503906 2.054688 35.628906 2.265625 35.71875 C 2.480469 35.804688 2.699219 35.851562 2.929688 35.851562 L 28.375 35.851562 C 28.601562 35.851562 28.824219 35.804688 29.035156 35.71875 C 29.25 35.628906 29.4375 35.503906 29.597656 35.339844 C 29.761719 35.179688 29.886719 34.992188 29.976562 34.777344 C 30.0625 34.566406 30.109375 34.34375 30.109375 34.117188 L 30.109375 33.589844 C 36.652344 30.628906 35.777344 23.191406 35.765625 23.109375 C 35.746094 22.96875 35.683594 22.847656 35.574219 22.75 C 35.464844 22.65625 35.335938 22.609375 35.191406 22.609375 Z M 27.21875 14.851562 L 28.488281 15.644531 L 27.21875 16.542969 Z M 25.242188 9.25 L 19.699219 9.25 C 19.539062 9.25 19.402344 9.195312 19.289062 9.082031 C 19.179688 8.96875 19.121094 8.832031 19.121094 8.671875 L 19.121094 3.128906 Z M 5.242188 2.890625 C 5.242188 2.730469 5.300781 2.59375 5.414062 2.484375 C 5.527344 2.371094 5.664062 2.3125 5.820312 2.3125 L 17.964844 2.3125 L 17.964844 8.671875 C 17.964844 8.902344 18.007812 9.125 18.097656 9.335938 C 18.1875 9.550781 18.3125 9.738281 18.472656 9.898438 C 18.636719 10.0625 18.824219 10.1875 19.035156 10.277344 C 19.25 10.363281 19.46875 10.40625 19.699219 10.40625 L 26.058594 10.40625 L 26.058594 17.359375 L 15.652344 24.734375 L 5.242188 17.359375 Z M 4.085938 16.542969 L 2.816406 15.644531 L 4.085938 14.851562 Z M 28.953125 34.117188 C 28.949219 34.273438 28.894531 34.410156 28.78125 34.523438 C 28.667969 34.636719 28.53125 34.695312 28.375 34.695312 L 2.929688 34.695312 C 2.769531 34.695312 2.636719 34.636719 2.523438 34.523438 C 2.410156 34.410156 2.351562 34.273438 2.351562 34.117188 L 2.351562 16.730469 L 15.316406 25.914062 C 15.539062 26.070312 15.761719 26.070312 15.984375 25.914062 L 28.949219 16.730469 L 28.949219 19.273438 C 28.832031 19.195312 28.703125 19.160156 28.5625 19.175781 C 28.421875 19.1875 28.300781 19.246094 28.199219 19.34375 C 28.167969 19.378906 25.171875 22.609375 22.058594 22.609375 C 21.914062 22.609375 21.785156 22.65625 21.675781 22.75 C 21.570312 22.847656 21.503906 22.964844 21.484375 23.109375 C 21.472656 23.195312 20.480469 31.582031 28.453125 34.089844 C 28.625 34.132812 28.792969 34.117188 28.949219 34.035156 Z M 29.308594 32.675781 C 29.085938 32.765625 28.859375 32.851562 28.625 32.929688 C 22.71875 30.96875 22.515625 25.421875 22.59375 23.738281 C 25.285156 23.492188 27.679688 21.464844 28.625 20.554688 C 29.574219 21.464844 31.964844 23.492188 34.65625 23.738281 C 34.734375 25.355469 34.546875 30.527344 29.308594 32.675781 Z M 29.308594 32.675781 "/><path style=" stroke:none;fill-rule:nonzero;fill:#4685f7;fill-opacity:1;" d="M 11.394531 18.375 C 11.457031 18.59375 11.558594 18.796875 11.699219 18.980469 C 11.835938 19.160156 12.007812 19.308594 12.207031 19.421875 C 12.40625 19.539062 12.617188 19.609375 12.847656 19.640625 C 13.074219 19.671875 13.296875 19.65625 13.519531 19.597656 L 18.832031 18.175781 C 19.054688 18.117188 19.253906 18.015625 19.4375 17.875 C 19.617188 17.734375 19.765625 17.566406 19.882812 17.367188 C 19.996094 17.167969 20.070312 16.953125 20.101562 16.726562 C 20.128906 16.5 20.117188 16.273438 20.058594 16.054688 L 19.042969 12.265625 C 18.988281 12.066406 18.902344 11.882812 18.785156 11.714844 C 18.664062 11.546875 18.519531 11.402344 18.347656 11.289062 C 18.179688 11.171875 17.992188 11.085938 17.792969 11.039062 C 17.59375 10.988281 17.390625 10.972656 17.183594 10.996094 L 16.644531 8.960938 C 16.535156 8.578125 16.359375 8.234375 16.113281 7.921875 C 15.867188 7.609375 15.574219 7.355469 15.226562 7.160156 C 14.882812 6.964844 14.511719 6.84375 14.121094 6.792969 C 13.726562 6.742188 13.335938 6.769531 12.953125 6.871094 C 12.570312 6.972656 12.222656 7.144531 11.90625 7.386719 C 11.589844 7.628906 11.332031 7.917969 11.132812 8.261719 C 10.929688 8.601562 10.804688 8.96875 10.746094 9.363281 C 10.691406 9.753906 10.710938 10.144531 10.808594 10.527344 L 11.355469 12.558594 C 11.164062 12.640625 10.996094 12.753906 10.847656 12.898438 C 10.699219 13.042969 10.582031 13.207031 10.492188 13.394531 C 10.402344 13.578125 10.351562 13.773438 10.332031 13.980469 C 10.3125 14.1875 10.328125 14.386719 10.382812 14.585938 Z M 17.65625 12.214844 C 17.796875 12.292969 17.886719 12.410156 17.925781 12.566406 L 18.941406 16.351562 C 18.984375 16.507812 18.964844 16.652344 18.882812 16.789062 C 18.804688 16.929688 18.6875 17.019531 18.53125 17.058594 L 13.21875 18.484375 C 13.066406 18.523438 12.921875 18.503906 12.78125 18.425781 C 12.644531 18.34375 12.554688 18.226562 12.511719 18.074219 L 11.5 14.289062 C 11.457031 14.132812 11.476562 13.988281 11.554688 13.847656 C 11.636719 13.710938 11.753906 13.621094 11.90625 13.582031 L 16.910156 12.238281 C 17.148438 12.175781 17.433594 12.0625 17.65625 12.214844 Z M 13.246094 7.949219 C 13.484375 7.882812 13.726562 7.863281 13.972656 7.894531 C 14.21875 7.925781 14.445312 8.003906 14.660156 8.128906 C 14.875 8.25 15.058594 8.410156 15.207031 8.609375 C 15.359375 8.804688 15.464844 9.023438 15.527344 9.261719 L 16.0625 11.269531 L 12.464844 12.234375 L 11.925781 10.230469 C 11.863281 9.992188 11.847656 9.75 11.878906 9.503906 C 11.914062 9.257812 11.992188 9.03125 12.113281 8.816406 C 12.238281 8.601562 12.398438 8.421875 12.59375 8.269531 C 12.789062 8.121094 13.007812 8.011719 13.246094 7.949219 Z M 31.117188 24.453125 L 28.058594 27.515625 L 26.734375 26.191406 C 26.621094 26.082031 26.484375 26.027344 26.328125 26.027344 C 26.167969 26.027344 26.035156 26.085938 25.921875 26.195312 C 25.8125 26.308594 25.753906 26.441406 25.753906 26.601562 C 25.75 26.757812 25.804688 26.894531 25.914062 27.007812 L 27.648438 28.742188 C 27.761719 28.855469 27.898438 28.910156 28.058594 28.910156 C 28.21875 28.910156 28.355469 28.855469 28.46875 28.742188 L 31.9375 25.273438 C 32.046875 25.160156 32.101562 25.023438 32.097656 24.867188 C 32.097656 24.707031 32.042969 24.574219 31.929688 24.460938 C 31.820312 24.351562 31.683594 24.292969 31.527344 24.292969 C 31.367188 24.292969 31.234375 24.34375 31.121094 24.453125 Z M 13.917969 31.800781 L 4.664062 31.800781 C 4.507812 31.800781 4.371094 31.859375 4.257812 31.972656 C 4.144531 32.085938 4.085938 32.222656 4.085938 32.382812 C 4.085938 32.539062 4.144531 32.675781 4.257812 32.789062 C 4.371094 32.902344 4.507812 32.960938 4.667969 32.957031 L 13.917969 32.957031 C 14.078125 32.957031 14.214844 32.902344 14.328125 32.789062 C 14.441406 32.675781 14.496094 32.539062 14.496094 32.378906 C 14.496094 32.222656 14.441406 32.085938 14.328125 31.972656 C 14.214844 31.859375 14.078125 31.800781 13.917969 31.800781 Z M 4.664062 30.066406 L 7.558594 30.066406 C 7.714844 30.066406 7.851562 30.011719 7.964844 29.898438 C 8.078125 29.785156 8.136719 29.648438 8.136719 29.488281 C 8.136719 29.328125 8.078125 29.195312 7.964844 29.082031 C 7.851562 28.96875 7.714844 28.910156 7.558594 28.910156 L 4.664062 28.910156 C 4.507812 28.910156 4.371094 28.96875 4.257812 29.082031 C 4.144531 29.195312 4.085938 29.328125 4.085938 29.488281 C 4.085938 29.648438 4.144531 29.785156 4.257812 29.898438 C 4.371094 30.011719 4.507812 30.066406 4.664062 30.066406 Z M 4.664062 30.066406 "/></g></svg>