<svg xmlns="http://www.w3.org/2000/svg" xmlns:xlink="http://www.w3.org/1999/xlink" width="50" zoomAndPan="magnify" viewBox="0 0 37.5 37.499999" height="50" preserveAspectRatio="xMidYMid meet" version="1.2"><defs><clipPath id="e7a90d60e3"><path d="M 0 0 L 37 0 L 37 37.007812 L 0 37.007812 Z M 0 0 "/></clipPath></defs><g id="ac9236edf5"><g clip-rule="nonzero" clip-path="url(#e7a90d60e3)"><path style=" stroke:none;fill-rule:evenodd;fill:#4685f7;fill-opacity:1;" d="M 36.972656 5.589844 C 36.964844 5.3125 36.910156 5.050781 36.796875 4.796875 C 36.6875 4.546875 36.535156 4.324219 36.339844 4.132812 C 36.140625 3.941406 35.914062 3.796875 35.660156 3.691406 C 35.40625 3.589844 35.140625 3.539062 34.867188 3.542969 C 34.414062 3.546875 34.003906 3.679688 33.636719 3.941406 C 32.398438 4.746094 31.042969 5.128906 29.566406 5.097656 C 27.542969 5.089844 24.90625 4.339844 24.121094 2.210938 C 24.011719 1.894531 23.859375 1.601562 23.660156 1.328125 C 23.464844 1.058594 23.230469 0.824219 22.960938 0.628906 C 22.691406 0.429688 22.394531 0.277344 22.078125 0.171875 C 21.761719 0.0625 21.433594 0.0078125 21.101562 0 L 15.917969 0 C 15.582031 0.0078125 15.257812 0.0625 14.9375 0.167969 C 14.621094 0.277344 14.328125 0.429688 14.054688 0.628906 C 13.785156 0.824219 13.550781 1.058594 13.351562 1.328125 C 13.152344 1.601562 13 1.894531 12.890625 2.210938 C 12.105469 4.339844 9.464844 5.097656 7.441406 5.097656 C 5.96875 5.128906 4.609375 4.742188 3.371094 3.941406 C 3.003906 3.679688 2.59375 3.546875 2.144531 3.542969 C 1.871094 3.539062 1.605469 3.589844 1.347656 3.691406 C 1.09375 3.792969 0.867188 3.941406 0.671875 4.132812 C 0.472656 4.324219 0.320312 4.546875 0.210938 4.796875 C 0.101562 5.050781 0.0429688 5.3125 0.0390625 5.589844 C -0.367188 24.0625 5.792969 34.628906 18.339844 36.996094 C 18.394531 37.003906 18.449219 37.007812 18.507812 37.007812 C 18.566406 37.007812 18.625 37.003906 18.683594 36.996094 C 21.773438 36.460938 24.601562 35.289062 27.167969 33.480469 C 27.660156 33.574219 28.160156 33.621094 28.664062 33.621094 C 29.210938 33.621094 29.75 33.566406 30.285156 33.457031 C 30.820312 33.347656 31.339844 33.191406 31.84375 32.980469 C 32.347656 32.769531 32.828125 32.515625 33.28125 32.210938 C 33.734375 31.90625 34.152344 31.5625 34.539062 31.175781 C 34.925781 30.789062 35.269531 30.367188 35.574219 29.914062 C 35.875 29.460938 36.132812 28.980469 36.339844 28.476562 C 36.550781 27.972656 36.707031 27.453125 36.8125 26.917969 C 36.921875 26.378906 36.972656 25.839844 36.972656 25.292969 C 36.976562 23.535156 36.46875 21.9375 35.449219 20.5 C 36.59375 16.300781 37.101562 11.332031 36.972656 5.589844 Z M 29.253906 31.734375 C 29.054688 31.757812 28.859375 31.773438 28.660156 31.769531 C 27.996094 31.773438 27.347656 31.671875 26.710938 31.464844 C 25.855469 31.195312 25.089844 30.765625 24.417969 30.175781 C 23.742188 29.585938 23.214844 28.882812 22.835938 28.070312 C 22.550781 27.496094 22.363281 26.890625 22.28125 26.257812 C 22.222656 25.9375 22.195312 25.617188 22.195312 25.292969 C 22.195312 24.605469 22.304688 23.933594 22.519531 23.277344 C 22.734375 22.625 23.046875 22.019531 23.453125 21.464844 C 23.859375 20.90625 24.34375 20.429688 24.902344 20.027344 C 25.464844 19.625 26.074219 19.320312 26.730469 19.113281 L 26.738281 19.113281 C 27.363281 18.914062 28.003906 18.816406 28.660156 18.816406 L 28.742188 18.816406 C 29.628906 18.828125 30.476562 19.015625 31.285156 19.378906 C 32.09375 19.738281 32.796875 20.246094 33.394531 20.898438 C 33.960938 21.5 34.390625 22.1875 34.679688 22.960938 C 34.976562 23.710938 35.125 24.488281 35.121094 25.292969 C 35.125 25.695312 35.085938 26.089844 35.011719 26.484375 C 34.941406 26.875 34.832031 27.257812 34.6875 27.628906 C 34.542969 28.003906 34.363281 28.359375 34.15625 28.699219 C 33.945312 29.039062 33.703125 29.355469 33.4375 29.652344 C 33.167969 29.945312 32.871094 30.214844 32.554688 30.457031 C 32.234375 30.695312 31.894531 30.90625 31.539062 31.082031 C 31.179688 31.261719 30.808594 31.40625 30.425781 31.515625 C 30.042969 31.625 29.648438 31.695312 29.253906 31.734375 Z M 33.941406 18.875 C 32.558594 17.726562 30.972656 17.097656 29.179688 16.984375 C 29.457031 15.679688 29.660156 14.363281 29.789062 13.035156 C 29.820312 12.769531 29.746094 12.539062 29.566406 12.339844 C 29.394531 12.136719 29.175781 12.027344 28.910156 12.019531 C 24.933594 11.851562 21.402344 10.195312 19.222656 7.464844 C 19.132812 7.359375 19.027344 7.277344 18.902344 7.21875 C 18.773438 7.164062 18.640625 7.132812 18.503906 7.132812 C 18.363281 7.132812 18.234375 7.164062 18.105469 7.21875 C 17.980469 7.277344 17.875 7.359375 17.785156 7.464844 C 15.605469 10.195312 12.078125 11.851562 8.097656 12.019531 C 7.84375 12.027344 7.628906 12.128906 7.453125 12.316406 C 7.28125 12.503906 7.199219 12.722656 7.210938 12.980469 C 7.21875 13.234375 7.320312 13.449219 7.507812 13.621094 C 7.695312 13.796875 7.914062 13.878906 8.171875 13.867188 C 12.28125 13.703125 15.984375 12.101562 18.503906 9.445312 C 19.75 10.707031 21.175781 11.714844 22.785156 12.460938 C 24.390625 13.210938 26.078125 13.65625 27.847656 13.792969 C 27.714844 14.898438 27.523438 15.992188 27.277344 17.078125 C 26.796875 17.160156 26.324219 17.285156 25.867188 17.449219 C 25.40625 17.613281 24.964844 17.820312 24.542969 18.0625 C 24.121094 18.304688 23.722656 18.582031 23.347656 18.894531 C 22.972656 19.207031 22.628906 19.550781 22.3125 19.921875 C 22 20.292969 21.71875 20.691406 21.476562 21.113281 C 21.230469 21.535156 21.023438 21.976562 20.855469 22.433594 C 20.6875 22.890625 20.5625 23.363281 20.476562 23.84375 C 20.394531 24.320312 20.351562 24.804688 20.351562 25.292969 C 20.351562 25.972656 20.429688 26.640625 20.589844 27.300781 C 20.738281 27.894531 20.949219 28.460938 21.226562 29.003906 C 22.046875 30.652344 23.277344 31.890625 24.921875 32.722656 C 22.925781 33.917969 20.789062 34.726562 18.503906 35.148438 C 7.101562 32.90625 1.503906 22.980469 1.882812 5.632812 C 1.890625 5.53125 1.941406 5.457031 2.035156 5.414062 C 2.128906 5.375 2.21875 5.382812 2.300781 5.449219 C 3.855469 6.488281 5.570312 6.984375 7.441406 6.949219 C 10.886719 6.949219 13.703125 5.339844 14.625 2.847656 C 14.714844 2.5625 14.878906 2.328125 15.113281 2.144531 C 15.351562 1.964844 15.621094 1.863281 15.917969 1.851562 L 21.101562 1.851562 C 21.398438 1.867188 21.664062 1.964844 21.898438 2.148438 C 22.132812 2.332031 22.292969 2.566406 22.382812 2.847656 C 22.898438 4.167969 23.78125 5.160156 25.03125 5.828125 C 26.445312 6.601562 27.957031 6.972656 29.566406 6.949219 C 31.4375 6.984375 33.152344 6.488281 34.710938 5.449219 C 34.753906 5.414062 34.808594 5.394531 34.867188 5.394531 C 35.03125 5.390625 35.117188 5.46875 35.125 5.632812 C 35.289062 10.097656 34.898438 14.511719 33.941406 18.875 Z M 21.226562 29.003906 C 20.425781 29.390625 19.589844 29.6875 18.726562 29.890625 C 18.578125 29.929688 18.429688 29.929688 18.28125 29.890625 C 12.890625 28.578125 9.5 24.5 7.914062 17.421875 C 7.859375 17.171875 7.898438 16.941406 8.035156 16.726562 C 8.171875 16.511719 8.367188 16.375 8.613281 16.320312 C 8.863281 16.265625 9.09375 16.308594 9.308594 16.445312 C 9.523438 16.582031 9.660156 16.773438 9.714844 17.023438 C 11.734375 26.035156 16.609375 27.570312 18.503906 28.042969 C 19.226562 27.871094 19.921875 27.625 20.589844 27.300781 C 20.734375 27.894531 20.949219 28.460938 21.226562 29.003906 Z M 27.617188 28.898438 C 27.363281 28.898438 27.144531 28.808594 26.964844 28.625 L 24.316406 25.972656 C 24.148438 25.789062 24.066406 25.574219 24.074219 25.328125 C 24.078125 25.082031 24.167969 24.871094 24.34375 24.695312 C 24.519531 24.519531 24.730469 24.429688 24.976562 24.421875 C 25.222656 24.417969 25.4375 24.496094 25.621094 24.664062 L 27.617188 26.664062 L 31.703125 22.570312 C 31.789062 22.476562 31.886719 22.40625 32.003906 22.355469 C 32.117188 22.300781 32.238281 22.273438 32.363281 22.269531 C 32.492188 22.269531 32.613281 22.289062 32.730469 22.335938 C 32.847656 22.386719 32.949219 22.453125 33.039062 22.542969 C 33.128906 22.632812 33.199219 22.734375 33.246094 22.851562 C 33.292969 22.96875 33.3125 23.089844 33.308594 23.21875 C 33.308594 23.34375 33.28125 23.464844 33.226562 23.578125 C 33.175781 23.695312 33.101562 23.792969 33.007812 23.878906 L 28.269531 28.625 C 28.089844 28.808594 27.871094 28.898438 27.617188 28.898438 Z M 27.617188 28.898438 "/></g></g></svg>