<svg xmlns="http://www.w3.org/2000/svg" xmlns:xlink="http://www.w3.org/1999/xlink" width="50" zoomAndPan="magnify" viewBox="0 0 37.5 37.499999" height="50" preserveAspectRatio="xMidYMid meet" version="1.2"><g id="717ebf9282"><path style=" stroke:none;fill-rule:nonzero;fill:#4685f7;fill-opacity:1;" d="M 18.503906 6.578125 L 21.394531 6.578125 L 21.394531 7.300781 L 18.503906 7.300781 Z M 18.503906 6.578125 "/><path style=" stroke:none;fill-rule:nonzero;fill:#4685f7;fill-opacity:1;" d="M 22.550781 6.578125 L 23.707031 6.578125 L 23.707031 7.300781 L 22.550781 7.300781 Z M 22.550781 6.578125 "/><path style=" stroke:none;fill-rule:nonzero;fill:#4685f7;fill-opacity:1;" d="M 15.035156 29.707031 L 16.191406 29.707031 L 16.191406 30.429688 L 15.035156 30.429688 Z M 15.035156 29.707031 "/><path style=" stroke:none;fill-rule:nonzero;fill:#4685f7;fill-opacity:1;" d="M 10.75 10.753906 C 8.691406 12.816406 7.554688 15.554688 7.554688 18.472656 C 7.554688 21.386719 8.691406 24.125 10.75 26.1875 L 11.261719 25.675781 C 9.339844 23.75 8.277344 21.191406 8.277344 18.472656 C 8.277344 15.75 9.339844 13.191406 11.261719 11.265625 Z M 10.75 10.753906 "/><path style=" stroke:none;fill-rule:nonzero;fill:#4685f7;fill-opacity:1;" d="M 8.9375 8.929688 L 8.429688 8.417969 C 7.070312 9.773438 6.019531 11.355469 5.304688 13.121094 C 4.613281 14.824219 4.265625 16.625 4.265625 18.46875 C 4.265625 20.316406 4.613281 22.117188 5.304688 23.820312 C 6.019531 25.582031 7.070312 27.167969 8.429688 28.523438 L 8.9375 28.011719 C 3.679688 22.75 3.679688 14.191406 8.9375 8.929688 Z M 26.300781 10.753906 L 25.789062 11.265625 C 27.714844 13.191406 28.773438 15.75 28.773438 18.472656 C 28.773438 21.191406 27.714844 23.75 25.789062 25.675781 L 26.300781 26.1875 C 28.359375 24.125 29.496094 21.386719 29.496094 18.46875 C 29.496094 15.554688 28.359375 12.816406 26.300781 10.753906 Z M 26.300781 10.753906 "/><path style=" stroke:none;fill-rule:nonzero;fill:#4685f7;fill-opacity:1;" d="M 31.746094 13.121094 C 31.03125 11.359375 29.980469 9.773438 28.625 8.417969 L 28.113281 8.929688 C 33.375 14.191406 33.375 22.75 28.113281 28.011719 L 28.625 28.523438 C 29.980469 27.167969 31.03125 25.585938 31.746094 23.820312 C 32.4375 22.117188 32.789062 20.316406 32.789062 18.46875 C 32.789062 16.625 32.4375 14.824219 31.746094 13.121094 Z M 15.867188 18.246094 L 15.355469 18.757812 L 17.089844 20.492188 C 17.160156 20.5625 17.253906 20.597656 17.347656 20.597656 C 17.4375 20.597656 17.53125 20.5625 17.601562 20.492188 L 21.648438 16.445312 L 21.140625 15.933594 L 17.347656 19.726562 Z M 15.867188 18.246094 "/><path style=" stroke:none;fill-rule:nonzero;fill:#4685f7;fill-opacity:1;" d="M 24.863281 12.9375 C 23.035156 12.9375 21.253906 12.414062 19.714844 11.425781 C 19.4375 11.25 19.167969 11.054688 18.910156 10.851562 L 18.730469 10.703125 C 18.597656 10.597656 18.410156 10.597656 18.277344 10.703125 L 18.007812 10.917969 C 17.851562 11.039062 17.695312 11.15625 17.542969 11.261719 C 16.847656 11.738281 16.09375 12.121094 15.296875 12.402344 C 15.046875 12.488281 14.785156 12.566406 14.523438 12.636719 C 13.746094 12.835938 12.945312 12.9375 12.144531 12.9375 C 11.941406 12.9375 11.78125 13.101562 11.78125 13.300781 L 11.78125 18.507812 C 11.78125 19.125 11.859375 19.738281 12.015625 20.328125 C 12.144531 20.820312 12.328125 21.304688 12.5625 21.757812 C 12.738281 22.113281 12.949219 22.449219 13.183594 22.765625 C 13.804688 23.613281 14.59375 24.296875 15.519531 24.804688 L 18.332031 26.335938 C 18.382812 26.367188 18.445312 26.382812 18.503906 26.382812 C 18.5625 26.382812 18.621094 26.367188 18.675781 26.335938 L 21.488281 24.804688 C 22.414062 24.300781 23.199219 23.613281 23.824219 22.765625 C 24.367188 22.03125 24.757812 21.210938 24.988281 20.328125 C 25.144531 19.738281 25.226562 19.125 25.226562 18.507812 L 25.226562 13.300781 C 25.226562 13.101562 25.0625 12.9375 24.863281 12.9375 Z M 24.503906 18.507812 C 24.503906 19.0625 24.429688 19.613281 24.289062 20.144531 C 24.082031 20.9375 23.730469 21.675781 23.242188 22.335938 C 22.679688 23.097656 21.972656 23.714844 21.140625 24.167969 L 18.503906 25.609375 L 15.863281 24.167969 C 15.03125 23.714844 14.324219 23.097656 13.761719 22.335938 C 13.554688 22.050781 13.367188 21.75 13.203125 21.433594 C 12.996094 21.019531 12.832031 20.589844 12.714844 20.144531 C 12.574219 19.613281 12.503906 19.0625 12.503906 18.507812 L 12.503906 13.652344 C 13.246094 13.628906 13.984375 13.519531 14.703125 13.335938 C 14.984375 13.261719 15.265625 13.175781 15.535156 13.082031 C 16.390625 12.78125 17.203125 12.371094 17.953125 11.855469 C 18.117188 11.742188 18.285156 11.617188 18.453125 11.488281 C 18.453125 11.488281 18.453125 11.488281 18.457031 11.484375 L 18.503906 11.449219 C 18.765625 11.65625 19.042969 11.855469 19.324219 12.035156 C 20.878906 13.03125 22.660156 13.589844 24.503906 13.652344 Z M 24.503906 18.507812 "/></g></svg>