<svg xmlns="http://www.w3.org/2000/svg" xmlns:xlink="http://www.w3.org/1999/xlink" width="50" zoomAndPan="magnify" viewBox="0 0 37.5 37.499999" height="50" preserveAspectRatio="xMidYMid meet" version="1.2"><g id="5b228651ec"><path style=" stroke:none;fill-rule:nonzero;fill:#4685f7;fill-opacity:1;" d="M 5.578125 28.304688 C 5.429688 28.304688 5.3125 28.1875 5.3125 28.039062 L 5.3125 26.644531 C 5.3125 25.800781 6.003906 25.105469 6.851562 25.105469 L 17.484375 25.105469 C 17.632812 25.105469 17.746094 25.222656 17.746094 25.371094 C 17.746094 25.519531 17.632812 25.636719 17.484375 25.636719 L 6.851562 25.636719 C 6.296875 25.636719 5.839844 26.089844 5.839844 26.644531 L 5.839844 28.039062 C 5.839844 28.1875 5.726562 28.304688 5.578125 28.304688 Z M 18.503906 24.613281 C 18.355469 24.613281 18.238281 24.5 18.238281 24.351562 L 18.238281 22.425781 C 18.238281 22.277344 18.355469 22.160156 18.503906 22.160156 C 18.652344 22.160156 18.769531 22.277344 18.769531 22.425781 L 18.769531 24.351562 C 18.769531 24.5 18.652344 24.613281 18.503906 24.613281 Z M 18.503906 24.613281 "/><path style=" stroke:none;fill-rule:nonzero;fill:#4685f7;fill-opacity:1;" d="M 18.503906 26.660156 C 17.792969 26.660156 17.21875 26.085938 17.21875 25.371094 C 17.21875 24.664062 17.792969 24.085938 18.503906 24.085938 C 19.21875 24.085938 19.792969 24.664062 19.792969 25.371094 C 19.792969 26.085938 19.210938 26.660156 18.503906 26.660156 Z M 18.503906 24.613281 C 18.085938 24.613281 17.746094 24.953125 17.746094 25.371094 C 17.746094 25.789062 18.085938 26.132812 18.503906 26.132812 C 18.921875 26.132812 19.265625 25.789062 19.265625 25.371094 C 19.265625 24.953125 18.921875 24.613281 18.503906 24.613281 Z M 18.503906 24.613281 "/><path style=" stroke:none;fill-rule:nonzero;fill:#4685f7;fill-opacity:1;" d="M 31.433594 28.304688 C 31.285156 28.304688 31.171875 28.1875 31.171875 28.039062 L 31.171875 26.644531 C 31.171875 26.089844 30.714844 25.636719 30.160156 25.636719 L 19.527344 25.636719 C 19.382812 25.636719 19.265625 25.519531 19.265625 25.371094 C 19.265625 25.222656 19.382812 25.105469 19.527344 25.105469 L 30.160156 25.105469 C 31.007812 25.105469 31.699219 25.800781 31.699219 26.644531 L 31.699219 28.039062 C 31.699219 28.1875 31.582031 28.304688 31.433594 28.304688 Z M 18.503906 24.613281 C 18.355469 24.613281 18.238281 24.5 18.238281 24.351562 L 18.238281 22.425781 C 18.238281 22.277344 18.355469 22.160156 18.503906 22.160156 C 18.652344 22.160156 18.769531 22.277344 18.769531 22.425781 L 18.769531 24.351562 C 18.769531 24.5 18.652344 24.613281 18.503906 24.613281 Z M 18.503906 28.304688 C 18.355469 28.304688 18.238281 28.1875 18.238281 28.039062 L 18.238281 26.394531 C 18.238281 26.25 18.355469 26.132812 18.503906 26.132812 C 18.652344 26.132812 18.769531 26.25 18.769531 26.394531 L 18.769531 28.039062 C 18.769531 28.1875 18.652344 28.304688 18.503906 28.304688 Z M 18.503906 28.304688 "/><path style=" stroke:none;fill-rule:nonzero;fill:#4685f7;fill-opacity:1;" d="M 18.503906 22.691406 C 13.078125 22.691406 8.828125 21.003906 8.828125 18.851562 L 8.828125 13.632812 C 8.828125 13.484375 8.945312 13.371094 9.09375 13.371094 C 9.242188 13.371094 9.355469 13.484375 9.355469 13.632812 L 9.355469 18.851562 C 9.355469 20.644531 13.542969 22.160156 18.503906 22.160156 C 23.460938 22.160156 27.648438 20.644531 27.648438 18.851562 L 27.648438 13.632812 C 27.648438 13.484375 27.765625 13.371094 27.914062 13.371094 C 28.0625 13.371094 28.179688 13.484375 28.179688 13.632812 L 28.179688 18.851562 C 28.179688 21.003906 23.925781 22.691406 18.503906 22.691406 Z M 18.503906 22.691406 "/><path style=" stroke:none;fill-rule:nonzero;fill:#4685f7;fill-opacity:1;" d="M 18.503906 17.46875 C 13.078125 17.46875 8.828125 15.78125 8.828125 13.628906 C 8.828125 12.957031 9.21875 12.332031 9.996094 11.773438 C 10.113281 11.6875 10.28125 11.714844 10.367188 11.832031 C 10.453125 11.949219 10.425781 12.117188 10.308594 12.203125 C 9.679688 12.660156 9.363281 13.144531 9.363281 13.632812 C 9.363281 15.425781 13.550781 16.945312 18.507812 16.945312 C 23.46875 16.945312 27.65625 15.425781 27.65625 13.632812 C 27.65625 13.019531 27.140625 12.519531 26.714844 12.210938 C 26.597656 12.128906 26.570312 11.964844 26.65625 11.84375 C 26.738281 11.726562 26.902344 11.699219 27.023438 11.785156 C 27.785156 12.332031 28.1875 12.972656 28.1875 13.632812 C 28.179688 15.78125 23.925781 17.46875 18.503906 17.46875 Z M 18.503906 17.46875 "/><path style=" stroke:none;fill-rule:nonzero;fill:#4685f7;fill-opacity:1;" d="M 18.503906 14.183594 C 13.078125 14.183594 8.828125 12.496094 8.828125 10.347656 L 8.828125 5.128906 C 8.828125 4.980469 8.945312 4.863281 9.09375 4.863281 C 9.242188 4.863281 9.355469 4.980469 9.355469 5.128906 L 9.355469 10.347656 C 9.355469 12.136719 13.542969 13.65625 18.503906 13.65625 C 23.460938 13.65625 27.648438 12.136719 27.648438 10.347656 L 27.648438 5.128906 C 27.648438 4.980469 27.765625 4.863281 27.914062 4.863281 C 28.0625 4.863281 28.179688 4.980469 28.179688 5.128906 L 28.179688 10.347656 C 28.179688 12.496094 23.925781 14.183594 18.503906 14.183594 Z M 18.503906 14.183594 "/><path style=" stroke:none;fill-rule:nonzero;fill:#4685f7;fill-opacity:1;" d="M 18.503906 8.964844 C 13.078125 8.964844 8.828125 7.28125 8.828125 5.128906 C 8.828125 2.976562 13.078125 1.289062 18.503906 1.289062 C 23.925781 1.289062 28.179688 2.972656 28.179688 5.128906 C 28.179688 7.285156 23.925781 8.964844 18.503906 8.964844 Z M 18.503906 1.820312 C 13.542969 1.820312 9.355469 3.335938 9.355469 5.128906 C 9.355469 6.921875 13.542969 8.4375 18.503906 8.4375 C 23.460938 8.4375 27.648438 6.921875 27.648438 5.128906 C 27.648438 3.335938 23.460938 1.820312 18.503906 1.820312 Z M 7.917969 35.714844 L 3.234375 35.714844 C 2.179688 35.714844 1.320312 34.859375 1.320312 33.804688 L 1.320312 29.691406 C 1.320312 28.632812 2.179688 27.777344 3.234375 27.777344 L 7.917969 27.777344 C 8.976562 27.777344 9.832031 28.632812 9.832031 29.691406 L 9.832031 33.804688 C 9.832031 34.859375 8.976562 35.714844 7.917969 35.714844 Z M 3.234375 28.304688 C 2.472656 28.304688 1.851562 28.929688 1.851562 29.691406 L 1.851562 33.804688 C 1.851562 34.5625 2.472656 35.1875 3.234375 35.1875 L 7.917969 35.1875 C 8.679688 35.1875 9.304688 34.5625 9.304688 33.804688 L 9.304688 29.691406 C 9.304688 28.929688 8.679688 28.304688 7.917969 28.304688 Z M 20.84375 35.714844 L 16.160156 35.714844 C 15.105469 35.714844 14.246094 34.859375 14.246094 33.804688 L 14.246094 29.691406 C 14.246094 28.632812 15.105469 27.777344 16.160156 27.777344 L 20.84375 27.777344 C 21.902344 27.777344 22.757812 28.632812 22.757812 29.691406 L 22.757812 33.804688 C 22.757812 34.859375 21.902344 35.714844 20.84375 35.714844 Z M 16.160156 28.304688 C 15.398438 28.304688 14.777344 28.929688 14.777344 29.691406 L 14.777344 33.804688 C 14.777344 34.5625 15.398438 35.1875 16.160156 35.1875 L 20.84375 35.1875 C 21.605469 35.1875 22.230469 34.5625 22.230469 33.804688 L 22.230469 29.691406 C 22.230469 28.929688 21.605469 28.304688 20.84375 28.304688 Z M 33.769531 35.714844 L 29.085938 35.714844 C 28.03125 35.714844 27.171875 34.859375 27.171875 33.804688 L 27.171875 29.691406 C 27.171875 28.632812 28.03125 27.777344 29.085938 27.777344 L 33.769531 27.777344 C 34.828125 27.777344 35.683594 28.632812 35.683594 29.691406 L 35.683594 33.804688 C 35.683594 34.859375 34.828125 35.714844 33.769531 35.714844 Z M 29.085938 28.304688 C 28.324219 28.304688 27.703125 28.929688 27.703125 29.691406 L 27.703125 33.804688 C 27.703125 34.5625 28.324219 35.1875 29.085938 35.1875 L 33.769531 35.1875 C 34.53125 35.1875 35.15625 34.5625 35.15625 33.804688 L 35.15625 29.691406 C 35.15625 28.929688 34.53125 28.304688 33.769531 28.304688 Z M 29.085938 28.304688 "/><path style=" stroke:none;fill-rule:nonzero;fill:#4685f7;fill-opacity:1;" d="M 7.269531 30.890625 L 3.886719 30.890625 C 3.738281 30.890625 3.621094 30.773438 3.621094 30.625 C 3.621094 30.476562 3.738281 30.359375 3.886719 30.359375 L 7.269531 30.359375 C 7.417969 30.359375 7.535156 30.476562 7.535156 30.625 C 7.535156 30.773438 7.410156 30.890625 7.269531 30.890625 Z M 7.269531 33.136719 L 3.886719 33.136719 C 3.738281 33.136719 3.621094 33.019531 3.621094 32.871094 C 3.621094 32.722656 3.738281 32.609375 3.886719 32.609375 L 7.269531 32.609375 C 7.417969 32.609375 7.535156 32.722656 7.535156 32.871094 C 7.535156 33.019531 7.410156 33.136719 7.269531 33.136719 Z M 7.269531 33.136719 "/><path style=" stroke:none;fill-rule:nonzero;fill:#4685f7;fill-opacity:1;" d="M 20.195312 30.890625 L 16.8125 30.890625 C 16.664062 30.890625 16.546875 30.773438 16.546875 30.625 C 16.546875 30.476562 16.664062 30.359375 16.8125 30.359375 L 20.195312 30.359375 C 20.34375 30.359375 20.460938 30.476562 20.460938 30.625 C 20.460938 30.773438 20.335938 30.890625 20.195312 30.890625 Z M 20.195312 33.136719 L 16.8125 33.136719 C 16.664062 33.136719 16.546875 33.019531 16.546875 32.871094 C 16.546875 32.722656 16.664062 32.609375 16.8125 32.609375 L 20.195312 32.609375 C 20.34375 32.609375 20.460938 32.722656 20.460938 32.871094 C 20.460938 33.019531 20.335938 33.136719 20.195312 33.136719 Z M 20.195312 33.136719 "/><path style=" stroke:none;fill-rule:nonzero;fill:#4685f7;fill-opacity:1;" d="M 33.121094 30.890625 L 29.738281 30.890625 C 29.589844 30.890625 29.472656 30.773438 29.472656 30.625 C 29.472656 30.476562 29.589844 30.359375 29.738281 30.359375 L 33.121094 30.359375 C 33.269531 30.359375 33.386719 30.476562 33.386719 30.625 C 33.386719 30.773438 33.269531 30.890625 33.121094 30.890625 Z M 33.121094 33.136719 L 29.738281 33.136719 C 29.589844 33.136719 29.472656 33.019531 29.472656 32.871094 C 29.472656 32.722656 29.589844 32.609375 29.738281 32.609375 L 33.121094 32.609375 C 33.269531 32.609375 33.386719 32.722656 33.386719 32.871094 C 33.386719 33.019531 33.269531 33.136719 33.121094 33.136719 Z M 33.121094 33.136719 "/><path style=" stroke:none;fill-rule:nonzero;fill:#4685f7;fill-opacity:1;" d="M 25.855469 10.265625 C 25.855469 10.496094 25.777344 10.6875 25.617188 10.851562 C 25.453125 11.011719 25.261719 11.089844 25.03125 11.089844 C 24.804688 11.089844 24.609375 11.011719 24.449219 10.851562 C 24.289062 10.6875 24.207031 10.496094 24.207031 10.265625 C 24.207031 10.039062 24.289062 9.84375 24.449219 9.683594 C 24.609375 9.523438 24.804688 9.441406 25.03125 9.441406 C 25.261719 9.441406 25.453125 9.523438 25.617188 9.683594 C 25.777344 9.84375 25.855469 10.039062 25.855469 10.265625 Z M 25.855469 10.265625 "/><path style=" stroke:none;fill-rule:nonzero;fill:#4685f7;fill-opacity:1;" d="M 23.183594 10.863281 C 23.183594 11.09375 23.101562 11.285156 22.941406 11.445312 C 22.78125 11.609375 22.585938 11.6875 22.355469 11.6875 C 22.128906 11.6875 21.933594 11.609375 21.773438 11.445312 C 21.613281 11.285156 21.53125 11.09375 21.53125 10.863281 C 21.53125 10.636719 21.613281 10.441406 21.773438 10.28125 C 21.933594 10.121094 22.128906 10.039062 22.355469 10.039062 C 22.585938 10.039062 22.78125 10.121094 22.941406 10.28125 C 23.101562 10.441406 23.183594 10.636719 23.183594 10.863281 Z M 23.183594 10.863281 "/><path style=" stroke:none;fill-rule:nonzero;fill:#4685f7;fill-opacity:1;" d="M 20.375 11.261719 C 20.375 11.488281 20.292969 11.683594 20.132812 11.84375 C 19.972656 12.003906 19.777344 12.085938 19.550781 12.085938 C 19.324219 12.085938 19.128906 12.003906 18.96875 11.84375 C 18.804688 11.683594 18.726562 11.488281 18.726562 11.261719 C 18.726562 11.03125 18.804688 10.839844 18.96875 10.675781 C 19.128906 10.515625 19.324219 10.4375 19.550781 10.4375 C 19.777344 10.4375 19.972656 10.515625 20.132812 10.675781 C 20.292969 10.839844 20.375 11.03125 20.375 11.261719 Z M 20.375 11.261719 "/><path style=" stroke:none;fill-rule:nonzero;fill:#4685f7;fill-opacity:1;" d="M 26.75 18.644531 C 26.75 18.875 26.671875 19.066406 26.507812 19.230469 C 26.347656 19.390625 26.152344 19.472656 25.925781 19.472656 C 25.699219 19.472656 25.503906 19.390625 25.34375 19.230469 C 25.179688 19.066406 25.101562 18.875 25.101562 18.644531 C 25.101562 18.417969 25.179688 18.222656 25.34375 18.0625 C 25.503906 17.902344 25.699219 17.820312 25.925781 17.820312 C 26.152344 17.820312 26.347656 17.902344 26.507812 18.0625 C 26.671875 18.222656 26.75 18.417969 26.75 18.644531 Z M 26.75 18.644531 "/><path style=" stroke:none;fill-rule:nonzero;fill:#4685f7;fill-opacity:1;" d="M 24.074219 19.238281 C 24.074219 19.464844 23.996094 19.660156 23.832031 19.820312 C 23.671875 19.980469 23.476562 20.0625 23.25 20.0625 C 23.023438 20.0625 22.828125 19.980469 22.667969 19.820312 C 22.507812 19.660156 22.425781 19.464844 22.425781 19.238281 C 22.425781 19.011719 22.507812 18.816406 22.667969 18.65625 C 22.828125 18.492188 23.023438 18.414062 23.25 18.414062 C 23.476562 18.414062 23.671875 18.492188 23.832031 18.65625 C 23.996094 18.816406 24.074219 19.011719 24.074219 19.238281 Z M 24.074219 19.238281 "/><path style=" stroke:none;fill-rule:nonzero;fill:#4685f7;fill-opacity:1;" d="M 21.269531 19.632812 C 21.269531 19.863281 21.1875 20.058594 21.027344 20.21875 C 20.867188 20.378906 20.671875 20.460938 20.445312 20.460938 C 20.214844 20.460938 20.019531 20.378906 19.859375 20.21875 C 19.699219 20.058594 19.617188 19.863281 19.617188 19.632812 C 19.617188 19.40625 19.699219 19.210938 19.859375 19.050781 C 20.019531 18.890625 20.214844 18.808594 20.445312 18.808594 C 20.671875 18.808594 20.867188 18.890625 21.027344 19.050781 C 21.1875 19.210938 21.269531 19.40625 21.269531 19.632812 Z M 21.269531 19.632812 "/></g></svg>