<svg xmlns="http://www.w3.org/2000/svg" xmlns:xlink="http://www.w3.org/1999/xlink" width="50" zoomAndPan="magnify" viewBox="0 0 37.5 37.499999" height="50" preserveAspectRatio="xMidYMid meet" version="1.2"><g id="8661b94323"><path style=" stroke:none;fill-rule:nonzero;fill:#4685f7;fill-opacity:1;" d="M 22.101562 18.5625 L 14.90625 18.5625 C 14.773438 18.5625 14.640625 18.546875 14.511719 18.511719 C 14.382812 18.476562 14.257812 18.425781 14.144531 18.359375 C 14.027344 18.292969 13.921875 18.210938 13.828125 18.117188 C 13.734375 18.023438 13.652344 17.917969 13.585938 17.800781 C 13.519531 17.683594 13.46875 17.5625 13.433594 17.433594 C 13.398438 17.304688 13.382812 17.171875 13.382812 17.039062 C 13.382812 16.90625 13.398438 16.773438 13.433594 16.644531 C 13.46875 16.515625 13.519531 16.390625 13.585938 16.277344 L 17.183594 10.046875 C 17.25 9.929688 17.332031 9.824219 17.425781 9.730469 C 17.519531 9.636719 17.625 9.554688 17.742188 9.488281 C 17.855469 9.421875 17.980469 9.371094 18.109375 9.335938 C 18.238281 9.300781 18.371094 9.285156 18.503906 9.285156 C 18.636719 9.285156 18.769531 9.300781 18.898438 9.335938 C 19.027344 9.371094 19.148438 9.421875 19.265625 9.488281 C 19.382812 9.554688 19.488281 9.636719 19.582031 9.730469 C 19.675781 9.824219 19.757812 9.929688 19.824219 10.046875 L 23.421875 16.277344 C 23.488281 16.390625 23.539062 16.515625 23.574219 16.644531 C 23.609375 16.773438 23.625 16.90625 23.625 17.039062 C 23.625 17.171875 23.609375 17.304688 23.574219 17.433594 C 23.539062 17.5625 23.488281 17.683594 23.421875 17.800781 C 23.355469 17.917969 23.273438 18.023438 23.179688 18.117188 C 23.082031 18.210938 22.980469 18.292969 22.863281 18.359375 C 22.746094 18.425781 22.625 18.476562 22.496094 18.511719 C 22.367188 18.546875 22.234375 18.5625 22.101562 18.5625 Z M 18.503906 10.320312 C 18.3125 10.316406 18.171875 10.398438 18.082031 10.5625 L 14.484375 16.792969 C 14.4375 16.871094 14.417969 16.953125 14.417969 17.039062 C 14.417969 17.125 14.441406 17.207031 14.484375 17.28125 C 14.527344 17.359375 14.585938 17.417969 14.660156 17.460938 C 14.738281 17.503906 14.820312 17.527344 14.90625 17.527344 L 22.101562 17.527344 C 22.1875 17.527344 22.269531 17.503906 22.34375 17.460938 C 22.421875 17.417969 22.480469 17.359375 22.523438 17.28125 C 22.566406 17.207031 22.589844 17.125 22.589844 17.039062 C 22.589844 16.953125 22.566406 16.871094 22.523438 16.792969 L 18.925781 10.5625 C 18.832031 10.398438 18.691406 10.316406 18.503906 10.320312 Z M 17.632812 10.304688 Z M 17.632812 10.304688 "/><path style=" stroke:none;fill-rule:nonzero;fill:#4685f7;fill-opacity:1;" d="M 18.503906 15.359375 C 18.359375 15.359375 18.238281 15.308594 18.136719 15.207031 C 18.035156 15.105469 17.984375 14.984375 17.984375 14.839844 L 17.984375 11.957031 C 17.984375 11.8125 18.035156 11.691406 18.136719 11.589844 C 18.238281 11.488281 18.359375 11.4375 18.503906 11.4375 C 18.644531 11.4375 18.769531 11.488281 18.871094 11.589844 C 18.972656 11.691406 19.019531 11.8125 19.019531 11.957031 L 19.019531 14.839844 C 19.019531 14.984375 18.972656 15.105469 18.871094 15.207031 C 18.769531 15.308594 18.644531 15.359375 18.503906 15.359375 Z M 18.503906 17.050781 C 18.359375 17.050781 18.238281 17 18.136719 16.898438 C 18.035156 16.796875 17.984375 16.675781 17.984375 16.53125 L 17.984375 16.402344 C 17.984375 16.257812 18.035156 16.136719 18.136719 16.035156 C 18.238281 15.933594 18.359375 15.882812 18.503906 15.882812 C 18.644531 15.882812 18.769531 15.933594 18.871094 16.035156 C 18.972656 16.136719 19.019531 16.257812 19.019531 16.402344 L 19.019531 16.53125 C 19.019531 16.675781 18.972656 16.796875 18.871094 16.898438 C 18.769531 17 18.644531 17.050781 18.503906 17.050781 Z M 24.816406 34.75 L 12.191406 34.75 C 12.046875 34.75 11.925781 34.699219 11.824219 34.597656 C 11.722656 34.496094 11.671875 34.375 11.671875 34.230469 C 11.675781 33.78125 11.761719 33.34375 11.933594 32.929688 C 12.105469 32.511719 12.351562 32.144531 12.671875 31.824219 C 12.992188 31.503906 13.359375 31.257812 13.777344 31.085938 C 14.191406 30.914062 14.628906 30.828125 15.078125 30.828125 L 21.929688 30.828125 C 22.378906 30.828125 22.816406 30.914062 23.230469 31.085938 C 23.648438 31.257812 24.015625 31.503906 24.335938 31.824219 C 24.65625 32.144531 24.902344 32.511719 25.074219 32.929688 C 25.246094 33.34375 25.332031 33.78125 25.332031 34.230469 C 25.332031 34.375 25.285156 34.496094 25.183594 34.597656 C 25.082031 34.699219 24.957031 34.75 24.816406 34.75 Z M 12.765625 33.714844 L 24.238281 33.714844 C 24.179688 33.449219 24.078125 33.207031 23.9375 32.976562 C 23.792969 32.75 23.617188 32.550781 23.410156 32.382812 C 23.199219 32.214844 22.964844 32.085938 22.714844 31.996094 C 22.460938 31.90625 22.199219 31.863281 21.929688 31.863281 L 15.078125 31.863281 C 14.808594 31.863281 14.546875 31.90625 14.292969 31.996094 C 14.039062 32.085938 13.808594 32.214844 13.597656 32.382812 C 13.386719 32.550781 13.210938 32.75 13.070312 32.976562 C 12.925781 33.207031 12.828125 33.449219 12.765625 33.714844 Z M 12.765625 33.714844 "/><path style=" stroke:none;fill-rule:nonzero;fill:#4685f7;fill-opacity:1;" d="M 20.847656 31.863281 L 16.160156 31.863281 C 16.078125 31.863281 16 31.84375 15.929688 31.808594 C 15.855469 31.773438 15.796875 31.722656 15.746094 31.660156 C 15.699219 31.59375 15.667969 31.523438 15.652344 31.445312 C 15.636719 31.363281 15.636719 31.285156 15.660156 31.207031 L 16.742188 27.242188 C 16.808594 26.988281 16.976562 26.859375 17.242188 26.859375 L 19.765625 26.859375 C 20.03125 26.859375 20.195312 26.988281 20.265625 27.242188 L 21.347656 31.207031 C 21.367188 31.285156 21.371094 31.363281 21.355469 31.445312 C 21.339844 31.523438 21.308594 31.59375 21.257812 31.660156 C 21.210938 31.722656 21.148438 31.773438 21.078125 31.808594 C 21.003906 31.84375 20.929688 31.863281 20.847656 31.863281 Z M 16.839844 30.828125 L 20.167969 30.828125 L 19.371094 27.894531 L 17.636719 27.894531 Z M 16.839844 30.828125 "/><path style=" stroke:none;fill-rule:nonzero;fill:#4685f7;fill-opacity:1;" d="M 32.929688 27.898438 L 4.078125 27.898438 C 3.933594 27.898438 3.8125 27.847656 3.710938 27.746094 C 3.609375 27.644531 3.558594 27.523438 3.558594 27.378906 L 3.558594 8.265625 C 3.558594 8.121094 3.609375 8 3.710938 7.898438 C 3.8125 7.796875 3.933594 7.746094 4.078125 7.746094 L 9.050781 7.746094 C 9.195312 7.746094 9.316406 7.796875 9.417969 7.898438 C 9.519531 8 9.570312 8.121094 9.570312 8.265625 C 9.570312 8.40625 9.519531 8.527344 9.417969 8.628906 C 9.316406 8.730469 9.195312 8.78125 9.050781 8.78125 L 4.59375 8.78125 L 4.59375 26.859375 L 32.410156 26.859375 L 32.410156 8.78125 L 27.953125 8.78125 C 27.8125 8.78125 27.6875 8.730469 27.585938 8.628906 C 27.488281 8.527344 27.4375 8.40625 27.4375 8.265625 C 27.4375 8.121094 27.488281 8 27.585938 7.898438 C 27.6875 7.796875 27.8125 7.746094 27.953125 7.746094 L 32.929688 7.746094 C 33.074219 7.746094 33.195312 7.796875 33.296875 7.898438 C 33.398438 8 33.449219 8.121094 33.449219 8.265625 L 33.449219 27.378906 C 33.449219 27.523438 33.398438 27.644531 33.296875 27.746094 C 33.195312 27.847656 33.074219 27.898438 32.929688 27.898438 Z M 32.929688 27.898438 "/><path style=" stroke:none;fill-rule:nonzero;fill:#4685f7;fill-opacity:1;" d="M 30.765625 25.734375 L 6.242188 25.734375 C 6.097656 25.734375 5.976562 25.683594 5.875 25.582031 C 5.773438 25.480469 5.722656 25.359375 5.722656 25.214844 L 5.722656 10.429688 C 5.722656 10.285156 5.773438 10.164062 5.875 10.0625 C 5.976562 9.960938 6.097656 9.910156 6.242188 9.910156 L 9.054688 9.910156 C 9.195312 9.910156 9.320312 9.960938 9.417969 10.0625 C 9.519531 10.164062 9.570312 10.285156 9.570312 10.429688 C 9.570312 10.570312 9.519531 10.691406 9.417969 10.792969 C 9.320312 10.894531 9.195312 10.945312 9.054688 10.945312 L 6.757812 10.945312 L 6.757812 24.695312 L 30.246094 24.695312 L 30.246094 10.945312 L 27.953125 10.945312 C 27.808594 10.945312 27.6875 10.894531 27.585938 10.792969 C 27.484375 10.691406 27.433594 10.570312 27.433594 10.429688 C 27.433594 10.285156 27.484375 10.164062 27.585938 10.0625 C 27.6875 9.960938 27.808594 9.910156 27.953125 9.910156 L 30.765625 9.910156 C 30.910156 9.910156 31.03125 9.960938 31.132812 10.0625 C 31.234375 10.164062 31.285156 10.285156 31.285156 10.429688 L 31.285156 25.214844 C 31.285156 25.359375 31.234375 25.480469 31.132812 25.582031 C 31.03125 25.683594 30.910156 25.734375 30.765625 25.734375 Z M 27.953125 7.453125 L 9.050781 7.453125 C 8.910156 7.453125 8.789062 7.402344 8.6875 7.300781 C 8.585938 7.199219 8.535156 7.078125 8.535156 6.933594 L 8.535156 2.777344 C 8.535156 2.632812 8.585938 2.511719 8.6875 2.410156 C 8.789062 2.308594 8.910156 2.257812 9.050781 2.257812 L 27.953125 2.257812 C 28.097656 2.257812 28.21875 2.308594 28.320312 2.410156 C 28.421875 2.511719 28.472656 2.632812 28.472656 2.777344 L 28.472656 6.933594 C 28.472656 7.078125 28.421875 7.199219 28.320312 7.300781 C 28.21875 7.402344 28.097656 7.453125 27.953125 7.453125 Z M 9.570312 6.417969 L 27.4375 6.417969 L 27.4375 3.292969 L 9.570312 3.292969 Z M 9.570312 6.417969 "/><path style=" stroke:none;fill-rule:nonzero;fill:#4685f7;fill-opacity:1;" d="M 27.953125 21.429688 L 9.050781 21.429688 C 8.910156 21.429688 8.789062 21.378906 8.6875 21.277344 C 8.585938 21.175781 8.535156 21.054688 8.535156 20.910156 L 8.535156 6.933594 C 8.535156 6.792969 8.585938 6.671875 8.6875 6.570312 C 8.789062 6.46875 8.910156 6.417969 9.050781 6.417969 L 27.953125 6.417969 C 28.097656 6.417969 28.21875 6.46875 28.320312 6.570312 C 28.421875 6.671875 28.472656 6.792969 28.472656 6.933594 L 28.472656 20.910156 C 28.472656 21.054688 28.421875 21.175781 28.320312 21.277344 C 28.21875 21.378906 28.097656 21.429688 27.953125 21.429688 Z M 9.570312 20.394531 L 27.4375 20.394531 L 27.4375 7.453125 L 9.570312 7.453125 Z M 26.351562 5.375 L 21.90625 5.375 C 21.761719 5.375 21.640625 5.324219 21.539062 5.222656 C 21.4375 5.121094 21.386719 5 21.386719 4.855469 C 21.386719 4.710938 21.4375 4.589844 21.539062 4.488281 C 21.640625 4.386719 21.761719 4.335938 21.90625 4.335938 L 26.351562 4.335938 C 26.496094 4.335938 26.617188 4.386719 26.71875 4.488281 C 26.820312 4.589844 26.871094 4.710938 26.871094 4.855469 C 26.871094 5 26.820312 5.121094 26.71875 5.222656 C 26.617188 5.324219 26.496094 5.375 26.351562 5.375 Z M 11.320312 5.375 L 10.65625 5.375 C 10.511719 5.375 10.390625 5.324219 10.289062 5.222656 C 10.1875 5.121094 10.136719 5 10.136719 4.855469 C 10.136719 4.710938 10.1875 4.589844 10.289062 4.488281 C 10.390625 4.386719 10.511719 4.335938 10.65625 4.335938 L 11.320312 4.335938 C 11.464844 4.335938 11.585938 4.386719 11.6875 4.488281 C 11.789062 4.589844 11.839844 4.710938 11.839844 4.855469 C 11.839844 5 11.789062 5.121094 11.6875 5.222656 C 11.585938 5.324219 11.464844 5.375 11.320312 5.375 Z M 13.714844 5.375 L 13.046875 5.375 C 12.90625 5.375 12.78125 5.324219 12.683594 5.222656 C 12.582031 5.121094 12.53125 5 12.53125 4.855469 C 12.53125 4.710938 12.582031 4.589844 12.683594 4.488281 C 12.78125 4.386719 12.90625 4.335938 13.046875 4.335938 L 13.714844 4.335938 C 13.855469 4.335938 13.980469 4.386719 14.082031 4.488281 C 14.183594 4.589844 14.230469 4.710938 14.230469 4.855469 C 14.230469 5 14.183594 5.121094 14.082031 5.222656 C 13.980469 5.324219 13.855469 5.375 13.714844 5.375 Z M 16.105469 5.375 L 15.441406 5.375 C 15.296875 5.375 15.175781 5.324219 15.074219 5.222656 C 14.972656 5.121094 14.921875 5 14.921875 4.855469 C 14.921875 4.710938 14.972656 4.589844 15.074219 4.488281 C 15.175781 4.386719 15.296875 4.335938 15.441406 4.335938 L 16.105469 4.335938 C 16.25 4.335938 16.371094 4.386719 16.472656 4.488281 C 16.574219 4.589844 16.625 4.710938 16.625 4.855469 C 16.625 5 16.574219 5.121094 16.472656 5.222656 C 16.371094 5.324219 16.25 5.375 16.105469 5.375 Z M 16.105469 5.375 "/></g></svg>