<svg xmlns="http://www.w3.org/2000/svg" xmlns:xlink="http://www.w3.org/1999/xlink" width="50" zoomAndPan="magnify" viewBox="0 0 37.5 37.499999" height="50" preserveAspectRatio="xMidYMid meet" version="1.2"><g id="a8ff96e1ba"><path style=" stroke:none;fill-rule:nonzero;fill:#4685f7;fill-opacity:1;" d="M 32.957031 1.734375 L 4.046875 1.734375 C 2.453125 1.734375 1.15625 3.03125 1.15625 4.625 L 1.15625 24.285156 C 1.15625 25.882812 2.453125 27.175781 4.046875 27.175781 L 15.832031 27.175781 L 14.097656 30.644531 L 11.566406 30.644531 C 9.332031 30.644531 7.515625 32.460938 7.515625 34.695312 C 7.515625 35.011719 7.777344 35.273438 8.09375 35.273438 L 28.910156 35.273438 C 29.230469 35.273438 29.488281 35.011719 29.488281 34.695312 C 29.488281 32.460938 27.675781 30.644531 25.441406 30.644531 L 22.910156 30.644531 L 21.175781 27.175781 L 32.957031 27.175781 C 34.554688 27.175781 35.851562 25.882812 35.851562 24.285156 L 35.851562 4.625 C 35.851562 3.03125 34.554688 1.734375 32.957031 1.734375 Z M 25.441406 31.800781 C 26.839844 31.800781 28.003906 32.796875 28.273438 34.117188 L 8.730469 34.117188 C 8.996094 32.796875 10.164062 31.800781 11.566406 31.800781 Z M 21.613281 30.644531 L 15.390625 30.644531 L 17.128906 27.175781 L 19.878906 27.175781 Z M 34.695312 24.285156 C 34.695312 25.238281 33.914062 26.019531 32.957031 26.019531 L 4.046875 26.019531 C 3.09375 26.019531 2.3125 25.238281 2.3125 24.285156 L 2.3125 4.625 C 2.3125 3.671875 3.09375 2.890625 4.046875 2.890625 L 32.957031 2.890625 C 33.914062 2.890625 34.695312 3.671875 34.695312 4.625 Z M 34.695312 24.285156 "/><path style=" stroke:none;fill-rule:nonzero;fill:#4685f7;fill-opacity:1;" d="M 32.957031 4.046875 L 4.046875 4.046875 C 3.730469 4.046875 3.46875 4.308594 3.46875 4.625 L 3.46875 24.285156 C 3.46875 24.605469 3.730469 24.863281 4.046875 24.863281 L 32.957031 24.863281 C 33.277344 24.863281 33.539062 24.605469 33.539062 24.285156 L 33.539062 4.625 C 33.539062 4.308594 33.277344 4.046875 32.957031 4.046875 Z M 4.625 5.203125 L 17.925781 5.203125 L 17.925781 13.878906 L 4.625 13.878906 Z M 32.378906 23.707031 L 4.625 23.707031 L 4.625 15.035156 L 32.378906 15.035156 Z M 32.378906 13.878906 L 19.082031 13.878906 L 19.082031 5.203125 L 32.378906 5.203125 Z M 32.378906 13.878906 "/><path style=" stroke:none;fill-rule:nonzero;fill:#4685f7;fill-opacity:1;" d="M 6.359375 20.238281 L 10.097656 20.238281 L 11.078125 21.710938 C 11.1875 21.878906 11.378906 21.984375 11.582031 21.96875 C 11.785156 21.960938 11.964844 21.851562 12.0625 21.679688 L 13.835938 18.566406 L 14.507812 19.914062 C 14.605469 20.109375 14.808594 20.230469 15.023438 20.230469 L 16.757812 20.230469 C 16.949219 20.230469 17.132812 20.132812 17.238281 19.972656 L 17.839844 19.0625 L 19.128906 21.644531 C 19.226562 21.832031 19.417969 21.957031 19.628906 21.960938 L 19.648438 21.960938 C 19.855469 21.960938 20.046875 21.851562 20.152344 21.671875 L 21.925781 18.5625 L 22.597656 19.910156 C 22.695312 20.105469 22.898438 20.226562 23.113281 20.226562 L 24.535156 20.226562 L 25.515625 21.699219 C 25.730469 22.023438 26.261719 22.023438 26.476562 21.699219 L 27.460938 20.226562 L 30.617188 20.226562 C 30.933594 20.226562 31.195312 19.964844 31.195312 19.648438 C 31.195312 19.332031 30.933594 19.070312 30.617188 19.070312 L 27.148438 19.070312 C 26.957031 19.070312 26.773438 19.167969 26.667969 19.332031 L 25.992188 20.34375 L 25.316406 19.332031 C 25.203125 19.167969 25.027344 19.070312 24.835938 19.070312 L 23.457031 19.070312 L 22.464844 17.074219 C 22.367188 16.882812 22.175781 16.761719 21.960938 16.757812 C 21.746094 16.757812 21.550781 16.859375 21.441406 17.046875 L 19.664062 20.15625 L 18.417969 17.652344 C 18.324219 17.46875 18.140625 17.347656 17.9375 17.335938 C 17.722656 17.324219 17.53125 17.421875 17.421875 17.589844 L 16.4375 19.0625 L 15.371094 19.0625 L 14.375 17.070312 C 14.277344 16.878906 14.085938 16.757812 13.871094 16.75 C 13.65625 16.75 13.460938 16.855469 13.351562 17.039062 L 11.5 20.273438 L 10.863281 19.320312 C 10.753906 19.15625 10.574219 19.058594 10.386719 19.058594 L 6.335938 19.058594 C 6.019531 19.058594 5.757812 19.320312 5.757812 19.636719 C 5.757812 19.953125 6.019531 20.214844 6.335938 20.214844 Z M 21.394531 8.671875 L 30.066406 8.671875 C 30.386719 8.671875 30.644531 8.414062 30.644531 8.09375 C 30.644531 7.777344 30.386719 7.515625 30.066406 7.515625 L 21.394531 7.515625 C 21.078125 7.515625 20.816406 7.777344 20.816406 8.09375 C 20.816406 8.414062 21.078125 8.671875 21.394531 8.671875 Z M 21.394531 11.566406 L 30.066406 11.566406 C 30.386719 11.566406 30.644531 11.304688 30.644531 10.984375 C 30.644531 10.667969 30.386719 10.40625 30.066406 10.40625 L 21.394531 10.40625 C 21.078125 10.40625 20.816406 10.667969 20.816406 10.984375 C 20.816406 11.304688 21.078125 11.566406 21.394531 11.566406 Z M 12.375 6.648438 C 11.980469 6.648438 11.597656 6.765625 11.277344 6.972656 C 10.953125 6.765625 10.570312 6.648438 10.175781 6.648438 C 9.03125 6.648438 8.09375 7.597656 8.09375 8.773438 C 8.09375 9.859375 9.414062 11.714844 11.054688 12.390625 C 11.125 12.421875 11.199219 12.4375 11.277344 12.4375 C 11.351562 12.4375 11.425781 12.421875 11.496094 12.390625 C 13.132812 11.714844 14.457031 9.859375 14.457031 8.773438 C 14.457031 7.605469 13.523438 6.648438 12.375 6.648438 Z M 11.277344 11.21875 C 10.113281 10.621094 9.25 9.28125 9.25 8.773438 C 9.25 8.261719 9.667969 7.804688 10.175781 7.804688 C 10.429688 7.804688 10.675781 7.914062 10.839844 8.105469 C 11.0625 8.355469 11.488281 8.355469 11.710938 8.105469 C 11.875 7.914062 12.121094 7.804688 12.375 7.804688 C 12.882812 7.804688 13.300781 8.238281 13.300781 8.773438 C 13.300781 9.304688 12.4375 10.621094 11.277344 11.21875 Z M 11.277344 11.21875 "/></g></svg>