<?xml version="1.0" encoding="UTF-8"?>
<svg id="Layer_1" data-name="Layer 1" xmlns="http://www.w3.org/2000/svg" viewBox="0 0 166 137">
  <defs>
    <style>
      .cls-1 {
        fill: #fff;
        stroke: #fff;
        stroke-miterlimit: 10;
        stroke-width: 3px;
      }

      .cls-2 {
        fill: #f04f23;
        stroke-width: 0px;
      }
    </style>
  </defs>
  <g>
    <line class="cls-1" x1="65.64" y1="38.08" x2="53.45" y2="70.21"/>
    <line class="cls-1" x1="71.67" y1="37.25" x2="58.99" y2="73.54"/>
    <line class="cls-1" x1="77.45" y1="39.9" x2="64.78" y2="77.64"/>
    <line class="cls-1" x1="83.23" y1="42.55" x2="70.56" y2="80.29"/>
    <line class="cls-1" x1="89" y1="45.2" x2="76.34" y2="82.94"/>
    <line class="cls-1" x1="94.78" y1="47.85" x2="82.11" y2="85.59"/>
    <line class="cls-1" x1="100.56" y1="50.5" x2="87.89" y2="88.24"/>
    <line class="cls-1" x1="106.33" y1="53.14" x2="93.67" y2="90.89"/>
    <line class="cls-1" x1="112.11" y1="55.79" x2="99.44" y2="93.54"/>
    <line class="cls-1" x1="117.89" y1="58.44" x2="105.22" y2="96.18"/>
    <line class="cls-1" x1="123.66" y1="61.09" x2="111" y2="98.83"/>
    <line class="cls-1" x1="129.44" y1="63.74" x2="116.77" y2="101.48"/>
    <line class="cls-1" x1="135.22" y1="66.39" x2="122.55" y2="104.13"/>
    <line class="cls-1" x1="140.99" y1="69.04" x2="128.33" y2="106.78"/>
  </g>
  <g>
    <path class="cls-2" d="M145.68,75.42c-1.4-7.45-5.45-13.31-11.42-17.88-4.31-3.3-9.15-5.46-14.56-6.19-3.84-.52-7.63-.13-11.39.78-2.79.67-5.52.53-7.65-1.61-1.41-1.41-2.63-3.06-3.74-4.73-6.89-10.38-20.92-14.06-31.97-8.33-5.88,3.05-10.03,7.81-13.26,13.45-1.33,2.33-2.49,4.76-3.77,7.22-.19-.05-.34-.08-.48-.12-4.75-1.52-9.58-1.95-14.47-.92-14.54,3.07-22.48,16.76-19.4,30.79,1.4,6.41,4.9,11.51,9.93,15.61,4.59,3.74,9.95,5.67,15.8,6.26,3.54.36,7.06.11,10.56-.52.63-.11,1.53.13,2,.57,2.77,2.56,5.46,5.22,8.3,7.7,5.28,4.59,11.04,8.51,17.12,11.95,1.43.81,3.18.81,4.61,0,9.69-5.44,18.35-12.17,25.85-20.38.43-.47,1.27-.73,1.89-.6,4.3.92,8.62,1.32,13,.56,6.94-1.2,12.68-4.52,17.19-9.93,5.78-6.94,7.51-14.94,5.86-23.69ZM94.86,105.72c-3.97,3.87-8.4,7.16-13.04,10.17-1.42.92-2.76.97-4.22.05-5.01-3.16-17.89-15.01-19.35-16.68,0,0-.01-.01-.02-.02-.99-1.13-2.59-1.54-3.99-.99-1.85.72-3.77,1.29-5.76,1.7-6.53,1.33-12.77.8-18.3-3.31-5.37-4-8-9.34-7.5-16.09.52-6.99,5.71-12.93,12.5-14.27,3.92-.77,7.72-.07,11.43,1.26,4.18,1.5,7.84,3.91,11.31,6.62,4.53,3.55,30.52,23.47,37.97,28.73.52.37.6,1.1.17,1.57-.37.41-.77.84-1.2,1.26ZM133.09,92.25c-3.08,4.19-7.26,6.65-12.4,7.44-5.75.88-11.06-.61-16.14-3.12-5.67-2.8-10.82-6.42-15.76-10.32-6.77-5.33-13.46-10.76-20.22-16.1-3.89-3.07-7.92-5.96-12.28-8.36-.1-.06-.18-.14-.51-.41,1.04-1.75,2.04-3.49,3.08-5.2,1.68-2.77,3.5-5.45,5.9-7.67,3.26-3.02,7.11-4.72,11.57-4.73,4.55,0,8.37,1.81,11.38,5.19,1.32,1.48,2.49,3.11,3.58,4.76,2.84,4.3,6.69,7.02,11.86,7.64,2.58.31,5.16.09,7.69-.56,11.52-2.94,22.88,5,25.26,16.06,1.2,5.57.42,10.76-2.99,15.39Z"/>
    <path class="cls-2" d="M33.25,54.47c-3.5,1.33-6.94,2.64-10.48,3.99-.34-1.57-.76-3.22-1.06-4.89-1.17-6.56-1.89-13.16-1.59-19.83.15-3.28.55-6.56.89-9.83.13-1.25.72-1.66,1.97-1.68,3.6-.06,7.2.02,10.79-.23,7.74-.53,15.31-1.98,22.68-4.44,7.59-2.53,14.69-6,21.18-10.7,1.59-1.15,1.98-1.14,3.56-.03,8.37,5.91,17.58,10,27.5,12.51,5.24,1.32,10.54,2.24,15.94,2.52,2.97.16,5.94.24,8.91.34,1.26.04,1.74.44,1.94,1.7.9,5.51,1.12,11.06.81,16.61-.25,4.43-.9,8.84-1.38,13.26-.03.25-.15.5-.26.86-3.37-2.16-6.89-3.79-10.69-4.89.13-1.45.33-2.86.38-4.27.13-3.62.23-7.25.28-10.87.01-.85-.55-1.3-1.42-1.41-3.46-.46-6.94-.84-10.38-1.43-11.13-1.89-21.72-5.33-31.35-11.35-1.42-.89-2.52-.89-3.96.02-7.79,4.96-16.29,8.24-25.29,10.27-4.89,1.1-9.85,1.74-14.82,2.28-1.39.15-2.78.25-4.16.38-.86.08-1.31.61-1.29,1.41.08,3.59.11,7.19.35,10.77.2,3.04.65,6.06.97,8.92Z"/>
  </g>
</svg>