<?xml version="1.0" encoding="UTF-8"?>
<svg id="Layer_1" data-name="Layer 1" xmlns="http://www.w3.org/2000/svg" viewBox="0 0 210 162">
  <defs>
    <style>
      .cls-1 {
        fill: #fff;
      }

      .cls-1, .cls-2, .cls-3 {
        stroke-width: 0px;
      }

      .cls-2 {
        fill: #004877;
      }

      .cls-3 {
        fill: #fefefe;
      }
    </style>
  </defs>
  <polygon class="cls-2" points="102.72 143.03 27 119.03 28 59.03 102.72 30.03 102.72 143.03"/>
  <polygon class="cls-2" points="102.56 143.03 178.56 119.35 160 59.03 102.56 30.03 102.56 143.03"/>
  <path class="cls-1" d="M67.98,78.66l34.04-6.66V30.09L27.76,60.29l.33,58.48,74.39,22.16-1.15-43.25-32.85.26s-1.01,9.61,0,9.81-20.53-2.47-20.53-2.47v-28.03l20.53-7.98-.51,9.4Z"/>
  <g>
    <polygon class="cls-3" points="144.12 35.8 134.43 34.24 104.27 140.73 130.19 133.56 157.65 47.19 144.12 35.8"/>
    <polygon class="cls-3" points="158.84 59.7 154.96 100.99 144.25 102.95 140.22 117.73 159.1 112.78 163.09 123.43 179 118.03 158.84 59.7"/>
  </g>
</svg>