<?xml version="1.0" encoding="UTF-8"?>
<svg id="Layer_1" data-name="Layer 1" xmlns="http://www.w3.org/2000/svg" viewBox="0 0 613 98">
  <defs>
    <style>
      .cls-1 {
        font-family: CragresRegular, Cragres;
        font-size: 52.43px;
      }

      .cls-1, .cls-2 {
        fill: #fff;
      }

      .cls-2 {
        stroke-width: 0px;
      }
    </style>
  </defs>
  <text class="cls-1" transform="translate(128 66.97)"><tspan x="0" y="0">CYBER</tspan></text>
  <g>
    <path class="cls-2" d="M100.2,54.51c-.95-5.03-3.68-8.99-7.71-12.07-2.91-2.23-6.18-3.69-9.82-4.18-2.59-.35-5.15-.09-7.69.52-1.88.45-3.72.36-5.16-1.09-.95-.95-1.78-2.06-2.53-3.19-4.65-7.01-14.12-9.49-21.58-5.62-3.97,2.06-6.77,5.27-8.95,9.08-.9,1.57-1.68,3.22-2.54,4.87-.13-.03-.23-.05-.32-.08-3.2-1.03-6.47-1.32-9.77-.62-9.82,2.07-15.17,11.31-13.09,20.78.95,4.32,3.31,7.77,6.7,10.54,3.1,2.53,6.72,3.83,10.66,4.23,2.39.24,4.77.07,7.13-.35.42-.08,1.03.09,1.35.38,1.87,1.73,3.68,3.52,5.6,5.19,3.56,3.1,7.45,5.74,11.56,8.07.96.55,2.14.55,3.11,0,6.54-3.67,12.38-8.21,17.45-13.75.29-.31.86-.49,1.28-.41,2.9.62,5.82.89,8.77.38,4.68-.81,8.56-3.05,11.6-6.7,3.9-4.68,5.07-10.08,3.96-15.99ZM65.9,74.96c-2.68,2.61-5.67,4.83-8.8,6.86-.96.62-1.86.65-2.85.03-3.38-2.13-12.07-10.13-13.06-11.26,0,0,0,0-.01-.01-.67-.77-1.75-1.04-2.69-.67-1.25.49-2.54.87-3.89,1.15-4.41.9-8.62.54-12.35-2.23-3.63-2.7-5.4-6.31-5.06-10.86.35-4.72,3.85-8.72,8.43-9.63,2.65-.52,5.21-.05,7.71.85,2.82,1.01,5.29,2.64,7.63,4.47,3.06,2.4,20.6,15.84,25.62,19.39.35.25.41.74.12,1.06-.25.28-.52.57-.81.85ZM91.7,65.87c-2.08,2.83-4.9,4.49-8.37,5.02-3.88.59-7.46-.41-10.9-2.11-3.83-1.89-7.3-4.33-10.64-6.96-4.57-3.6-9.08-7.26-13.65-10.87-2.63-2.07-5.35-4.02-8.29-5.64-.07-.04-.12-.1-.35-.27.7-1.18,1.38-2.36,2.08-3.51,1.14-1.87,2.36-3.68,3.98-5.18,2.2-2.04,4.8-3.19,7.81-3.19,3.07,0,5.65,1.22,7.68,3.5.89,1,1.68,2.1,2.41,3.21,1.92,2.9,4.52,4.74,8,5.16,1.74.21,3.48.06,5.19-.38,7.78-1.99,15.44,3.38,17.05,10.84.81,3.76.28,7.26-2.02,10.39Z"/>
    <path class="cls-2" d="M24.32,40.38c-2.36.9-4.68,1.78-7.08,2.69-.23-1.06-.51-2.17-.72-3.3-.79-4.43-1.27-8.88-1.07-13.38.1-2.22.37-4.42.6-6.63.09-.84.48-1.12,1.33-1.13,2.43-.04,4.86.01,7.28-.15,5.22-.36,10.33-1.34,15.3-2.99,5.12-1.7,9.92-4.05,14.3-7.22,1.07-.77,1.34-.77,2.4-.02,5.65,3.99,11.87,6.75,18.56,8.44,3.53.89,7.12,1.51,10.76,1.7,2,.11,4.01.17,6.01.23.85.03,1.17.29,1.31,1.15.6,3.72.76,7.47.55,11.21-.17,2.99-.61,5.97-.93,8.95-.02.17-.1.34-.18.58-2.27-1.46-4.65-2.56-7.21-3.3.09-.98.22-1.93.26-2.88.09-2.44.15-4.89.19-7.34,0-.57-.37-.88-.96-.95-2.34-.31-4.68-.57-7.01-.96-7.51-1.28-14.66-3.6-21.16-7.66-.96-.6-1.7-.6-2.67.02-5.26,3.35-10.99,5.56-17.07,6.93-3.3.74-6.65,1.17-10,1.54-.93.1-1.87.17-2.81.25-.58.05-.88.41-.87.95.05,2.42.08,4.85.23,7.27.13,2.05.44,4.09.65,6.02Z"/>
  </g>
  <text class="cls-1" transform="translate(378.54 66.93)"><tspan x="0" y="0">ARCH</tspan></text>
</svg>