<?xml version="1.0" encoding="UTF-8"?>
<svg id="Layer_1" data-name="Layer 1" xmlns="http://www.w3.org/2000/svg" xmlns:xlink="http://www.w3.org/1999/xlink" viewBox="0 0 210 162">
  <defs>
    <style>
      .cls-1 {
        fill: url(#linear-gradient);
      }

      .cls-1, .cls-2, .cls-3 {
        stroke-width: 0px;
      }

      .cls-2 {
        fill: url(#linear-gradient-2);
      }

      .cls-3 {
        fill: url(#linear-gradient-3);
      }
    </style>
    <linearGradient id="linear-gradient" x1="27.76" y1="85.51" x2="102.48" y2="85.51" gradientUnits="userSpaceOnUse">
      <stop offset="0" stop-color="#8a2be2"/>
      <stop offset=".14" stop-color="#7e3eea"/>
      <stop offset=".29" stop-color="#704cf0"/>
      <stop offset=".43" stop-color="#6257f6"/>
      <stop offset=".57" stop-color="#5262fa"/>
      <stop offset=".71" stop-color="#416bfc"/>
      <stop offset=".86" stop-color="#2b73fe"/>
      <stop offset="1" stop-color="#007bff"/>
    </linearGradient>
    <linearGradient id="linear-gradient-2" x1="104.27" y1="87.49" x2="157.65" y2="87.49" xlink:href="#linear-gradient"/>
    <linearGradient id="linear-gradient-3" x1="140.22" y1="91.56" x2="179" y2="91.56" xlink:href="#linear-gradient"/>
  </defs>
  <path class="cls-1" d="M67.98,78.66l34.04-6.66V30.09L27.76,60.29l.33,58.48,74.39,22.16-1.15-43.25-32.85.26s-1.01,9.61,0,9.81-20.53-2.47-20.53-2.47v-28.03l20.53-7.98-.51,9.4Z"/>
  <g>
    <polygon class="cls-2" points="144.12 35.8 134.43 34.24 104.27 140.73 130.19 133.56 157.65 47.19 144.12 35.8"/>
    <polygon class="cls-3" points="158.84 59.7 154.96 100.99 144.25 102.95 140.22 117.73 159.1 112.78 163.09 123.43 179 118.03 158.84 59.7"/>
  </g>
</svg>