<?xml version="1.0" encoding="UTF-8"?>
<svg id="Layer_1" data-name="Layer 1" xmlns="http://www.w3.org/2000/svg" viewBox="0 0 166 137">
  <defs>
    <style>
      .cls-1 {
        fill: #fff;
        stroke-width: 0px;
      }
    </style>
  </defs>
  <path class="cls-1" d="M145.77,75.41c-1.31-6.96-5.1-12.44-10.67-16.71-4.03-3.09-8.55-5.11-13.6-5.79-3.58-.48-7.13-.12-10.64.72-2.61.63-5.16.49-7.15-1.5-1.32-1.32-2.46-2.86-3.5-4.42-6.44-9.7-19.55-13.14-29.88-7.78-5.49,2.85-9.38,7.3-12.39,12.57-1.25,2.18-2.33,4.45-3.52,6.75-.18-.04-.31-.07-.44-.11-4.44-1.42-8.96-1.82-13.53-.86-13.59,2.87-21.01,15.66-18.13,28.78,1.31,5.99,4.58,10.76,9.28,14.59,4.29,3.5,9.3,5.3,14.76,5.85,3.31.34,6.6.1,9.87-.49.59-.11,1.43.12,1.87.53,2.59,2.39,5.1,4.88,7.76,7.19,4.93,4.29,10.32,7.95,16,11.17,1.34.76,2.97.76,4.31,0,9.06-5.08,17.15-11.37,24.16-19.05.4-.44,1.19-.69,1.77-.56,4.02.86,8.06,1.23,12.15.52,6.49-1.12,11.86-4.22,16.07-9.28,5.4-6.48,7.02-13.96,5.48-22.14ZM98.27,103.73c-3.71,3.62-7.85,6.69-12.19,9.5-1.33.86-2.58.91-3.94.05-4.68-2.95-16.72-14.03-18.08-15.59,0,0-.01-.01-.02-.02-.93-1.06-2.42-1.44-3.73-.93-1.73.67-3.52,1.21-5.38,1.59-6.11,1.25-11.93.75-17.11-3.09-5.02-3.74-7.47-8.73-7.01-15.03.48-6.53,5.33-12.08,11.68-13.34,3.67-.72,7.21-.07,10.68,1.18,3.91,1.4,7.33,3.65,10.57,6.19,4.24,3.32,28.52,21.94,35.49,26.85.49.34.56,1.03.16,1.47-.35.38-.72.79-1.12,1.18ZM134,91.14c-2.88,3.91-6.79,6.22-11.59,6.95-5.37.82-10.33-.57-15.09-2.92-5.3-2.61-10.11-6-14.73-9.65-6.33-4.98-12.58-10.06-18.9-15.05-3.64-2.87-7.4-5.57-11.48-7.81-.09-.05-.17-.13-.48-.38.97-1.64,1.91-3.26,2.88-4.86,1.57-2.59,3.27-5.09,5.51-7.17,3.05-2.83,6.64-4.41,10.82-4.42,4.25,0,7.82,1.7,10.64,4.85,1.23,1.38,2.32,2.9,3.34,4.45,2.65,4.02,6.25,6.56,11.08,7.14,2.41.29,4.82.08,7.18-.52,10.77-2.75,21.38,4.67,23.61,15.01,1.12,5.2.39,10.05-2.79,14.38Z"/>
  <path class="cls-1" d="M40.68,55.83c-3.27,1.24-6.48,2.47-9.8,3.73-.32-1.47-.71-3.01-.99-4.58-1.1-6.13-1.76-12.3-1.48-18.54.14-3.07.51-6.13.83-9.19.12-1.16.67-1.55,1.84-1.57,3.36-.06,6.73.02,10.08-.21,7.23-.49,14.31-1.85,21.2-4.15,7.09-2.36,13.73-5.61,19.8-10,1.48-1.07,1.85-1.07,3.32-.03,7.83,5.53,16.43,9.35,25.7,11.69,4.89,1.24,9.86,2.09,14.9,2.36,2.77.15,5.55.23,8.32.32,1.18.04,1.63.41,1.82,1.59.84,5.15,1.05,10.34.76,15.53-.23,4.14-.84,8.27-1.29,12.4-.03.24-.14.46-.24.81-3.15-2.02-6.44-3.54-9.99-4.57.13-1.35.31-2.67.36-3.99.12-3.38.21-6.77.26-10.16.01-.79-.52-1.22-1.33-1.32-3.24-.43-6.49-.79-9.71-1.33-10.4-1.77-20.3-4.99-29.3-10.61-1.33-.83-2.36-.83-3.7.02-7.28,4.64-15.22,7.7-23.64,9.6-4.57,1.03-9.21,1.62-13.85,2.13-1.29.14-2.59.23-3.89.35-.8.07-1.23.57-1.21,1.32.07,3.36.1,6.72.32,10.07.19,2.84.61,5.66.91,8.33Z"/>
</svg>