<?xml version="1.0" encoding="UTF-8"?>
<svg id="Layer_1" data-name="Layer 1" xmlns="http://www.w3.org/2000/svg" viewBox="0 0 128 128">
  <defs>
    <style>
      .cls-1 {
        fill: #f05125;
        stroke-width: 0px;
      }
    </style>
  </defs>
  <path class="cls-1" d="M122.29,70.52c-1.24-6.57-4.81-11.74-10.07-15.77-3.81-2.91-8.07-4.82-12.84-5.46-3.38-.46-6.73-.12-10.05.68-2.46.59-4.87.47-6.75-1.42-1.24-1.25-2.32-2.7-3.3-4.17-6.08-9.16-18.45-12.4-28.2-7.34-5.18,2.69-8.85,6.89-11.69,11.86-1.18,2.06-2.2,4.2-3.32,6.37-.17-.04-.3-.07-.42-.11-4.19-1.34-8.45-1.72-12.77-.81-12.83,2.71-19.83,14.78-17.11,27.16,1.24,5.65,4.32,10.16,8.76,13.77,4.05,3.3,8.78,5,13.93,5.52,3.12.32,6.23.1,9.31-.46.55-.1,1.35.12,1.76.5,2.45,2.26,4.81,4.61,7.32,6.79,4.66,4.05,9.74,7.5,15.1,10.54,1.26.71,2.8.72,4.07,0,8.55-4.79,16.19-10.73,22.8-17.97.38-.41,1.12-.65,1.67-.53,3.79.81,7.6,1.16,11.46.49,6.12-1.06,11.19-3.99,15.16-8.76,5.1-6.12,6.62-13.18,5.17-20.89ZM77.46,97.24c-3.5,3.42-7.41,6.31-11.5,8.97-1.26.81-2.43.86-3.72.04-4.42-2.78-15.78-13.24-17.06-14.71,0,0-.01-.01-.02-.02-.88-1-2.28-1.36-3.52-.87-1.63.63-3.32,1.14-5.08,1.5-5.76,1.18-11.26.71-16.14-2.92-4.74-3.53-7.05-8.24-6.61-14.19.45-6.17,5.03-11.4,11.02-12.59,3.46-.68,6.81-.06,10.08,1.11,3.69,1.32,6.92,3.45,9.97,5.84,4,3.13,26.92,20.7,33.49,25.34.46.32.53.97.15,1.39-.33.36-.68.74-1.06,1.11ZM111.19,85.36c-2.71,3.69-6.4,5.87-10.94,6.56-5.07.78-9.75-.54-14.24-2.75-5-2.47-9.54-5.66-13.91-9.1-5.97-4.7-11.87-9.49-17.84-14.2-3.43-2.71-6.99-5.26-10.83-7.37-.09-.05-.16-.13-.45-.36.91-1.55,1.8-3.08,2.72-4.59,1.48-2.45,3.09-4.81,5.2-6.77,2.88-2.67,6.27-4.17,10.21-4.17,4.01,0,7.38,1.6,10.04,4.58,1.16,1.3,2.19,2.74,3.16,4.2,2.51,3.8,5.9,6.19,10.46,6.74,2.27.27,4.55.08,6.78-.49,10.16-2.6,20.18,4.41,22.28,14.17,1.06,4.91.37,9.49-2.64,13.57Z"/>
  <path class="cls-1" d="M23.12,52.04c-3.08,1.17-6.12,2.33-9.25,3.52-.3-1.38-.67-2.84-.94-4.32-1.03-5.78-1.67-11.61-1.4-17.49.13-2.9.48-5.78.79-8.67.12-1.1.63-1.46,1.74-1.48,3.17-.05,6.35.01,9.51-.2,6.82-.47,13.5-1.75,20-3.91,6.69-2.23,12.96-5.29,18.68-9.44,1.4-1.01,1.75-1.01,3.14-.03,7.39,5.22,15.51,8.82,24.26,11.03,4.62,1.17,9.3,1.97,14.06,2.22,2.62.14,5.24.22,7.85.3,1.11.04,1.53.38,1.72,1.5.79,4.86.99,9.76.71,14.65-.22,3.91-.79,7.8-1.22,11.7-.02.22-.13.44-.23.76-2.97-1.91-6.08-3.34-9.43-4.31.12-1.28.29-2.52.34-3.77.12-3.19.2-6.39.25-9.59.01-.75-.49-1.15-1.25-1.25-3.06-.4-6.12-.74-9.16-1.26-9.82-1.67-19.16-4.71-27.65-10.01-1.25-.78-2.23-.79-3.49.02-6.87,4.38-14.37,7.27-22.31,9.06-4.32.97-8.69,1.53-13.08,2.01-1.22.13-2.45.22-3.67.33-.76.07-1.16.54-1.14,1.25.07,3.17.1,6.34.3,9.5.17,2.68.57,5.34.85,7.86Z"/>
</svg>